<svg width="598" height="596" viewBox="0 0 598 596" fill="none" xmlns="http://www.w3.org/2000/svg">
<path d="M221.032 45.7282C225.874 45.7282 229.799 41.8033 229.799 36.9618C229.799 32.1202 225.874 28.1953 221.032 28.1953C216.19 28.1953 212.266 32.1202 212.266 36.9618C212.266 41.8033 216.19 45.7282 221.032 45.7282Z" fill="white"/>
<path d="M246.343 45.7282C251.184 45.7282 255.109 41.8033 255.109 36.9618C255.109 32.1202 251.184 28.1953 246.343 28.1953C241.501 28.1953 237.576 32.1202 237.576 36.9618C237.576 41.8033 241.501 45.7282 246.343 45.7282Z" fill="white"/>
<path d="M208.378 67.6462C213.219 67.6462 217.144 63.7213 217.144 58.8797C217.144 54.0381 213.219 50.1133 208.378 50.1133C203.536 50.1133 199.611 54.0381 199.611 58.8797C199.611 63.7213 203.536 67.6462 208.378 67.6462Z" fill="white"/>
<path d="M233.684 67.6462C238.526 67.6462 242.451 63.7213 242.451 58.8797C242.451 54.0381 238.526 50.1133 233.684 50.1133C228.843 50.1133 224.918 54.0381 224.918 58.8797C224.918 63.7213 228.843 67.6462 233.684 67.6462Z" fill="white"/>
<path d="M259.001 67.6462C263.842 67.6462 267.767 63.7213 267.767 58.8797C267.767 54.0381 263.842 50.1133 259.001 50.1133C254.159 50.1133 250.234 54.0381 250.234 58.8797C250.234 63.7213 254.159 67.6462 259.001 67.6462Z" fill="white"/>
<path d="M284.3 67.6462C289.141 67.6462 293.066 63.7213 293.066 58.8797C293.066 54.0381 289.141 50.1133 284.3 50.1133C279.458 50.1133 275.533 54.0381 275.533 58.8797C275.533 63.7213 279.458 67.6462 284.3 67.6462Z" fill="white"/>
<path d="M195.729 45.7282C200.571 45.7282 204.496 41.8033 204.496 36.9618C204.496 32.1202 200.571 28.1953 195.729 28.1953C190.888 28.1953 186.963 32.1202 186.963 36.9618C186.963 41.8033 190.888 45.7282 195.729 45.7282Z" fill="white"/>
<path d="M195.729 89.5622C200.571 89.5622 204.496 85.6373 204.496 80.7957C204.496 75.9541 200.571 72.0293 195.729 72.0293C190.888 72.0293 186.963 75.9541 186.963 80.7957C186.963 85.6373 190.888 89.5622 195.729 89.5622Z" fill="white"/>
<path d="M221.032 89.5622C225.874 89.5622 229.799 85.6373 229.799 80.7957C229.799 75.9541 225.874 72.0293 221.032 72.0293C216.19 72.0293 212.266 75.9541 212.266 80.7957C212.266 85.6373 216.19 89.5622 221.032 89.5622Z" fill="white"/>
<path d="M246.343 89.5622C251.184 89.5622 255.109 85.6373 255.109 80.7957C255.109 75.9541 251.184 72.0293 246.343 72.0293C241.501 72.0293 237.576 75.9541 237.576 80.7957C237.576 85.6373 241.501 89.5622 246.343 89.5622Z" fill="white"/>
<path d="M271.647 89.5622C276.489 89.5622 280.414 85.6373 280.414 80.7957C280.414 75.9541 276.489 72.0293 271.647 72.0293C266.806 72.0293 262.881 75.9541 262.881 80.7957C262.881 85.6373 266.806 89.5622 271.647 89.5622Z" fill="white"/>
<path d="M296.956 89.5622C301.798 89.5622 305.722 85.6373 305.722 80.7957C305.722 75.9541 301.798 72.0293 296.956 72.0293C292.114 72.0293 288.189 75.9541 288.189 80.7957C288.189 85.6373 292.114 89.5622 296.956 89.5622Z" fill="white"/>
<path d="M322.261 89.5622C327.102 89.5622 331.027 85.6373 331.027 80.7957C331.027 75.9541 327.102 72.0293 322.261 72.0293C317.419 72.0293 313.494 75.9541 313.494 80.7957C313.494 85.6373 317.419 89.5622 322.261 89.5622Z" fill="white"/>
<path d="M334.915 67.6462C339.757 67.6462 343.681 63.7213 343.681 58.8797C343.681 54.0381 339.757 50.1133 334.915 50.1133C330.073 50.1133 326.148 54.0381 326.148 58.8797C326.148 63.7213 330.073 67.6462 334.915 67.6462Z" fill="white"/>
<path d="M170.421 45.0386C174.883 45.0386 178.5 41.4216 178.5 36.9597C178.5 32.4979 174.883 28.8809 170.421 28.8809C165.959 28.8809 162.342 32.4979 162.342 36.9597C162.342 41.4216 165.959 45.0386 170.421 45.0386Z" fill="white"/>
<path d="M183.071 67.6462C187.913 67.6462 191.838 63.7213 191.838 58.8797C191.838 54.0381 187.913 50.1133 183.071 50.1133C178.23 50.1133 174.305 54.0381 174.305 58.8797C174.305 63.7213 178.23 67.6462 183.071 67.6462Z" fill="white"/>
<path d="M183.071 111.478C187.913 111.478 191.838 107.553 191.838 102.712C191.838 97.8702 187.913 93.9453 183.071 93.9453C178.23 93.9453 174.305 97.8702 174.305 102.712C174.305 107.553 178.23 111.478 183.071 111.478Z" fill="white"/>
<path d="M208.378 111.478C213.219 111.478 217.144 107.553 217.144 102.712C217.144 97.8702 213.219 93.9453 208.378 93.9453C203.536 93.9453 199.611 97.8702 199.611 102.712C199.611 107.553 203.536 111.478 208.378 111.478Z" fill="white"/>
<path d="M233.684 111.478C238.526 111.478 242.451 107.553 242.451 102.712C242.451 97.8702 238.526 93.9453 233.684 93.9453C228.843 93.9453 224.918 97.8702 224.918 102.712C224.918 107.553 228.843 111.478 233.684 111.478Z" fill="white"/>
<path d="M259.001 111.478C263.842 111.478 267.767 107.553 267.767 102.712C267.767 97.8702 263.842 93.9453 259.001 93.9453C254.159 93.9453 250.234 97.8702 250.234 102.712C250.234 107.553 254.159 111.478 259.001 111.478Z" fill="white"/>
<path d="M284.3 111.478C289.141 111.478 293.066 107.553 293.066 102.712C293.066 97.8702 289.141 93.9453 284.3 93.9453C279.458 93.9453 275.533 97.8702 275.533 102.712C275.533 107.553 279.458 111.478 284.3 111.478Z" fill="white"/>
<path d="M309.604 111.478C314.446 111.478 318.371 107.553 318.371 102.712C318.371 97.8702 314.446 93.9453 309.604 93.9453C304.763 93.9453 300.838 97.8702 300.838 102.712C300.838 107.553 304.763 111.478 309.604 111.478Z" fill="white"/>
<path d="M334.915 111.478C339.757 111.478 343.681 107.553 343.681 102.712C343.681 97.8702 339.757 93.9453 334.915 93.9453C330.073 93.9453 326.148 97.8702 326.148 102.712C326.148 107.553 330.073 111.478 334.915 111.478Z" fill="white"/>
<path d="M347.567 89.5622C352.409 89.5622 356.334 85.6373 356.334 80.7957C356.334 75.9541 352.409 72.0293 347.567 72.0293C342.726 72.0293 338.801 75.9541 338.801 80.7957C338.801 85.6373 342.726 89.5622 347.567 89.5622Z" fill="white"/>
<path d="M157.77 67.6462C162.612 67.6462 166.537 63.7213 166.537 58.8797C166.537 54.0381 162.612 50.1133 157.77 50.1133C152.929 50.1133 149.004 54.0381 149.004 58.8797C149.004 63.7213 152.929 67.6462 157.77 67.6462Z" fill="white"/>
<path d="M170.423 89.5622C175.264 89.5622 179.189 85.6373 179.189 80.7957C179.189 75.9541 175.264 72.0293 170.423 72.0293C165.581 72.0293 161.656 75.9541 161.656 80.7957C161.656 85.6373 165.581 89.5622 170.423 89.5622Z" fill="white"/>
<path d="M170.423 133.394C175.264 133.394 179.189 129.469 179.189 124.628C179.189 119.786 175.264 115.861 170.423 115.861C165.581 115.861 161.656 119.786 161.656 124.628C161.656 129.469 165.581 133.394 170.423 133.394Z" fill="white"/>
<path d="M195.729 133.394C200.571 133.394 204.496 129.469 204.496 124.628C204.496 119.786 200.571 115.861 195.729 115.861C190.888 115.861 186.963 119.786 186.963 124.628C186.963 129.469 190.888 133.394 195.729 133.394Z" fill="white"/>
<path d="M221.032 133.394C225.874 133.394 229.799 129.469 229.799 124.628C229.799 119.786 225.874 115.861 221.032 115.861C216.19 115.861 212.266 119.786 212.266 124.628C212.266 129.469 216.19 133.394 221.032 133.394Z" fill="white"/>
<path d="M246.343 133.394C251.184 133.394 255.109 129.469 255.109 124.628C255.109 119.786 251.184 115.861 246.343 115.861C241.501 115.861 237.576 119.786 237.576 124.628C237.576 129.469 241.501 133.394 246.343 133.394Z" fill="white"/>
<path d="M271.647 133.394C276.489 133.394 280.414 129.469 280.414 124.628C280.414 119.786 276.489 115.861 271.647 115.861C266.806 115.861 262.881 119.786 262.881 124.628C262.881 129.469 266.806 133.394 271.647 133.394Z" fill="white"/>
<path d="M296.956 133.394C301.798 133.394 305.722 129.469 305.722 124.628C305.722 119.786 301.798 115.861 296.956 115.861C292.114 115.861 288.189 119.786 288.189 124.628C288.189 129.469 292.114 133.394 296.956 133.394Z" fill="white"/>
<path d="M322.261 133.394C327.102 133.394 331.027 129.469 331.027 124.628C331.027 119.786 327.102 115.861 322.261 115.861C317.419 115.861 313.494 119.786 313.494 124.628C313.494 129.469 317.419 133.394 322.261 133.394Z" fill="white"/>
<path d="M347.567 133.394C352.409 133.394 356.334 129.469 356.334 124.628C356.334 119.786 352.409 115.861 347.567 115.861C342.726 115.861 338.801 119.786 338.801 124.628C338.801 129.469 342.726 133.394 347.567 133.394Z" fill="white"/>
<path d="M360.222 111.478C365.063 111.478 368.988 107.553 368.988 102.712C368.988 97.8702 365.063 93.9453 360.222 93.9453C355.38 93.9453 351.455 97.8702 351.455 102.712C351.455 107.553 355.38 111.478 360.222 111.478Z" fill="white"/>
<path d="M372.872 89.5622C377.714 89.5622 381.639 85.6373 381.639 80.7957C381.639 75.9541 377.714 72.0293 372.872 72.0293C368.03 72.0293 364.105 75.9541 364.105 80.7957C364.105 85.6373 368.03 89.5622 372.872 89.5622Z" fill="white"/>
<path d="M132.464 67.6462C137.305 67.6462 141.23 63.7213 141.23 58.8797C141.23 54.0381 137.305 50.1133 132.464 50.1133C127.622 50.1133 123.697 54.0381 123.697 58.8797C123.697 63.7213 127.622 67.6462 132.464 67.6462Z" fill="white"/>
<path d="M145.114 89.5622C149.956 89.5622 153.881 85.6373 153.881 80.7957C153.881 75.9541 149.956 72.0293 145.114 72.0293C140.273 72.0293 136.348 75.9541 136.348 80.7957C136.348 85.6373 140.273 89.5622 145.114 89.5622Z" fill="white"/>
<path d="M157.77 111.478C162.612 111.478 166.537 107.553 166.537 102.712C166.537 97.8702 162.612 93.9453 157.77 93.9453C152.929 93.9453 149.004 97.8702 149.004 102.712C149.004 107.553 152.929 111.478 157.77 111.478Z" fill="white"/>
<path d="M157.77 155.312C162.612 155.312 166.537 151.387 166.537 146.546C166.537 141.704 162.612 137.779 157.77 137.779C152.929 137.779 149.004 141.704 149.004 146.546C149.004 151.387 152.929 155.312 157.77 155.312Z" fill="white"/>
<path d="M183.071 155.312C187.913 155.312 191.838 151.387 191.838 146.546C191.838 141.704 187.913 137.779 183.071 137.779C178.23 137.779 174.305 141.704 174.305 146.546C174.305 151.387 178.23 155.312 183.071 155.312Z" fill="white"/>
<path d="M208.378 155.312C213.219 155.312 217.144 151.387 217.144 146.546C217.144 141.704 213.219 137.779 208.378 137.779C203.536 137.779 199.611 141.704 199.611 146.546C199.611 151.387 203.536 155.312 208.378 155.312Z" fill="white"/>
<path d="M233.684 155.312C238.526 155.312 242.451 151.387 242.451 146.546C242.451 141.704 238.526 137.779 233.684 137.779C228.843 137.779 224.918 141.704 224.918 146.546C224.918 151.387 228.843 155.312 233.684 155.312Z" fill="white"/>
<path d="M259.001 155.312C263.842 155.312 267.767 151.387 267.767 146.546C267.767 141.704 263.842 137.779 259.001 137.779C254.159 137.779 250.234 141.704 250.234 146.546C250.234 151.387 254.159 155.312 259.001 155.312Z" fill="white"/>
<path d="M284.3 155.312C289.141 155.312 293.066 151.387 293.066 146.546C293.066 141.704 289.141 137.779 284.3 137.779C279.458 137.779 275.533 141.704 275.533 146.546C275.533 151.387 279.458 155.312 284.3 155.312Z" fill="white"/>
<path d="M309.604 155.312C314.446 155.312 318.371 151.387 318.371 146.546C318.371 141.704 314.446 137.779 309.604 137.779C304.763 137.779 300.838 141.704 300.838 146.546C300.838 151.387 304.763 155.312 309.604 155.312Z" fill="white"/>
<path d="M334.915 155.312C339.757 155.312 343.681 151.387 343.681 146.546C343.681 141.704 339.757 137.779 334.915 137.779C330.073 137.779 326.148 141.704 326.148 146.546C326.148 151.387 330.073 155.312 334.915 155.312Z" fill="white"/>
<path d="M360.222 155.312C365.063 155.312 368.988 151.387 368.988 146.546C368.988 141.704 365.063 137.779 360.222 137.779C355.38 137.779 351.455 141.704 351.455 146.546C351.455 151.387 355.38 155.312 360.222 155.312Z" fill="white"/>
<path d="M372.872 133.394C377.714 133.394 381.639 129.469 381.639 124.628C381.639 119.786 377.714 115.861 372.872 115.861C368.03 115.861 364.105 119.786 364.105 124.628C364.105 129.469 368.03 133.394 372.872 133.394Z" fill="white"/>
<path d="M385.526 111.478C390.368 111.478 394.293 107.553 394.293 102.712C394.293 97.8702 390.368 93.9453 385.526 93.9453C380.685 93.9453 376.76 97.8702 376.76 102.712C376.76 107.553 380.685 111.478 385.526 111.478Z" fill="white"/>
<path d="M398.179 89.5622C403.02 89.5622 406.945 85.6373 406.945 80.7957C406.945 75.9541 403.02 72.0293 398.179 72.0293C393.337 72.0293 389.412 75.9541 389.412 80.7957C389.412 85.6373 393.337 89.5622 398.179 89.5622Z" fill="white"/>
<path d="M119.806 89.5622C124.647 89.5622 128.572 85.6373 128.572 80.7957C128.572 75.9541 124.647 72.0293 119.806 72.0293C114.964 72.0293 111.039 75.9541 111.039 80.7957C111.039 85.6373 114.964 89.5622 119.806 89.5622Z" fill="white"/>
<path d="M132.464 111.478C137.305 111.478 141.23 107.553 141.23 102.712C141.23 97.8702 137.305 93.9453 132.464 93.9453C127.622 93.9453 123.697 97.8702 123.697 102.712C123.697 107.553 127.622 111.478 132.464 111.478Z" fill="white"/>
<path d="M145.114 133.394C149.956 133.394 153.881 129.469 153.881 124.628C153.881 119.786 149.956 115.861 145.114 115.861C140.273 115.861 136.348 119.786 136.348 124.628C136.348 129.469 140.273 133.394 145.114 133.394Z" fill="white"/>
<path d="M145.114 177.224C149.956 177.224 153.881 173.299 153.881 168.458C153.881 163.616 149.956 159.691 145.114 159.691C140.273 159.691 136.348 163.616 136.348 168.458C136.348 173.299 140.273 177.224 145.114 177.224Z" fill="white"/>
<path d="M170.423 177.224C175.264 177.224 179.189 173.299 179.189 168.458C179.189 163.616 175.264 159.691 170.423 159.691C165.581 159.691 161.656 163.616 161.656 168.458C161.656 173.299 165.581 177.224 170.423 177.224Z" fill="white"/>
<path d="M195.729 177.224C200.571 177.224 204.496 173.299 204.496 168.458C204.496 163.616 200.571 159.691 195.729 159.691C190.888 159.691 186.963 163.616 186.963 168.458C186.963 173.299 190.888 177.224 195.729 177.224Z" fill="white"/>
<path d="M221.032 177.224C225.874 177.224 229.799 173.299 229.799 168.458C229.799 163.616 225.874 159.691 221.032 159.691C216.19 159.691 212.266 163.616 212.266 168.458C212.266 173.299 216.19 177.224 221.032 177.224Z" fill="white"/>
<path d="M246.343 177.224C251.184 177.224 255.109 173.299 255.109 168.458C255.109 163.616 251.184 159.691 246.343 159.691C241.501 159.691 237.576 163.616 237.576 168.458C237.576 173.299 241.501 177.224 246.343 177.224Z" fill="white"/>
<path d="M271.647 177.224C276.489 177.224 280.414 173.299 280.414 168.458C280.414 163.616 276.489 159.691 271.647 159.691C266.806 159.691 262.881 163.616 262.881 168.458C262.881 173.299 266.806 177.224 271.647 177.224Z" fill="white"/>
<path d="M296.956 177.224C301.798 177.224 305.722 173.299 305.722 168.458C305.722 163.616 301.798 159.691 296.956 159.691C292.114 159.691 288.189 163.616 288.189 168.458C288.189 173.299 292.114 177.224 296.956 177.224Z" fill="white"/>
<path d="M322.261 177.224C327.102 177.224 331.027 173.299 331.027 168.458C331.027 163.616 327.102 159.691 322.261 159.691C317.419 159.691 313.494 163.616 313.494 168.458C313.494 173.299 317.419 177.224 322.261 177.224Z" fill="white"/>
<path d="M347.567 177.224C352.409 177.224 356.334 173.299 356.334 168.458C356.334 163.616 352.409 159.691 347.567 159.691C342.726 159.691 338.801 163.616 338.801 168.458C338.801 173.299 342.726 177.224 347.567 177.224Z" fill="white"/>
<path d="M372.872 177.224C377.714 177.224 381.639 173.299 381.639 168.458C381.639 163.616 377.714 159.691 372.872 159.691C368.03 159.691 364.105 163.616 364.105 168.458C364.105 173.299 368.03 177.224 372.872 177.224Z" fill="white"/>
<path d="M385.526 155.312C390.368 155.312 394.293 151.387 394.293 146.546C394.293 141.704 390.368 137.779 385.526 137.779C380.685 137.779 376.76 141.704 376.76 146.546C376.76 151.387 380.685 155.312 385.526 155.312Z" fill="white"/>
<path d="M398.179 133.394C403.02 133.394 406.945 129.469 406.945 124.628C406.945 119.786 403.02 115.861 398.179 115.861C393.337 115.861 389.412 119.786 389.412 124.628C389.412 129.469 393.337 133.394 398.179 133.394Z" fill="white"/>
<path d="M410.831 111.478C415.672 111.478 419.598 107.553 419.598 102.712C419.598 97.8702 415.672 93.9453 410.831 93.9453C405.989 93.9453 402.064 97.8702 402.064 102.712C402.064 107.553 405.989 111.478 410.831 111.478Z" fill="white"/>
<path d="M423.487 89.5622C428.329 89.5622 432.254 85.6373 432.254 80.7957C432.254 75.9541 428.329 72.0293 423.487 72.0293C418.646 72.0293 414.721 75.9541 414.721 80.7957C414.721 85.6373 418.646 89.5622 423.487 89.5622Z" fill="white"/>
<path d="M107.153 111.478C111.995 111.478 115.92 107.553 115.92 102.712C115.92 97.8702 111.995 93.9453 107.153 93.9453C102.312 93.9453 98.3867 97.8702 98.3867 102.712C98.3867 107.553 102.312 111.478 107.153 111.478Z" fill="white"/>
<path d="M119.806 133.394C124.647 133.394 128.572 129.469 128.572 124.628C128.572 119.786 124.647 115.861 119.806 115.861C114.964 115.861 111.039 119.786 111.039 124.628C111.039 129.469 114.964 133.394 119.806 133.394Z" fill="white"/>
<path d="M132.464 155.312C137.305 155.312 141.23 151.387 141.23 146.546C141.23 141.704 137.305 137.779 132.464 137.779C127.622 137.779 123.697 141.704 123.697 146.546C123.697 151.387 127.622 155.312 132.464 155.312Z" fill="white"/>
<path d="M132.464 199.144C137.305 199.144 141.23 195.219 141.23 190.378C141.23 185.536 137.305 181.611 132.464 181.611C127.622 181.611 123.697 185.536 123.697 190.378C123.697 195.219 127.622 199.144 132.464 199.144Z" fill="white"/>
<path d="M157.77 199.144C162.612 199.144 166.537 195.219 166.537 190.378C166.537 185.536 162.612 181.611 157.77 181.611C152.929 181.611 149.004 185.536 149.004 190.378C149.004 195.219 152.929 199.144 157.77 199.144Z" fill="white"/>
<path d="M183.071 199.144C187.913 199.144 191.838 195.219 191.838 190.378C191.838 185.536 187.913 181.611 183.071 181.611C178.23 181.611 174.305 185.536 174.305 190.378C174.305 195.219 178.23 199.144 183.071 199.144Z" fill="white"/>
<path d="M208.378 199.144C213.219 199.144 217.144 195.219 217.144 190.378C217.144 185.536 213.219 181.611 208.378 181.611C203.536 181.611 199.611 185.536 199.611 190.378C199.611 195.219 203.536 199.144 208.378 199.144Z" fill="white"/>
<path d="M233.684 199.144C238.526 199.144 242.451 195.219 242.451 190.378C242.451 185.536 238.526 181.611 233.684 181.611C228.843 181.611 224.918 185.536 224.918 190.378C224.918 195.219 228.843 199.144 233.684 199.144Z" fill="white"/>
<path d="M259.001 199.144C263.842 199.144 267.767 195.219 267.767 190.378C267.767 185.536 263.842 181.611 259.001 181.611C254.159 181.611 250.234 185.536 250.234 190.378C250.234 195.219 254.159 199.144 259.001 199.144Z" fill="white"/>
<path d="M284.3 199.144C289.141 199.144 293.066 195.219 293.066 190.378C293.066 185.536 289.141 181.611 284.3 181.611C279.458 181.611 275.533 185.536 275.533 190.378C275.533 195.219 279.458 199.144 284.3 199.144Z" fill="white"/>
<path d="M292.767 213C296.209 213 299 210.209 299 206.767C299 203.324 296.209 200.533 292.767 200.533C289.324 200.533 286.533 203.324 286.533 206.767C286.533 210.209 289.324 213 292.767 213Z" fill="white"/>
<path d="M309.604 199.144C314.446 199.144 318.371 195.219 318.371 190.378C318.371 185.536 314.446 181.611 309.604 181.611C304.763 181.611 300.838 185.536 300.838 190.378C300.838 195.219 304.763 199.144 309.604 199.144Z" fill="white"/>
<path d="M334.915 199.144C339.757 199.144 343.681 195.219 343.681 190.378C343.681 185.536 339.757 181.611 334.915 181.611C330.073 181.611 326.148 185.536 326.148 190.378C326.148 195.219 330.073 199.144 334.915 199.144Z" fill="white"/>
<path d="M360.222 199.144C365.063 199.144 368.988 195.219 368.988 190.378C368.988 185.536 365.063 181.611 360.222 181.611C355.38 181.611 351.455 185.536 351.455 190.378C351.455 195.219 355.38 199.144 360.222 199.144Z" fill="white"/>
<path d="M385.526 199.144C390.368 199.144 394.293 195.219 394.293 190.378C394.293 185.536 390.368 181.611 385.526 181.611C380.685 181.611 376.76 185.536 376.76 190.378C376.76 195.219 380.685 199.144 385.526 199.144Z" fill="white"/>
<path d="M398.179 177.224C403.02 177.224 406.945 173.299 406.945 168.458C406.945 163.616 403.02 159.691 398.179 159.691C393.337 159.691 389.412 163.616 389.412 168.458C389.412 173.299 393.337 177.224 398.179 177.224Z" fill="white"/>
<path d="M410.831 155.312C415.672 155.312 419.598 151.387 419.598 146.546C419.598 141.704 415.672 137.779 410.831 137.779C405.989 137.779 402.064 141.704 402.064 146.546C402.064 151.387 405.989 155.312 410.831 155.312Z" fill="white"/>
<path d="M423.487 133.394C428.329 133.394 432.254 129.469 432.254 124.628C432.254 119.786 428.329 115.861 423.487 115.861C418.646 115.861 414.721 119.786 414.721 124.628C414.721 129.469 418.646 133.394 423.487 133.394Z" fill="white"/>
<path d="M94.5009 133.394C99.3425 133.394 103.267 129.469 103.267 124.628C103.267 119.786 99.3425 115.861 94.5009 115.861C89.6593 115.861 85.7344 119.786 85.7344 124.628C85.7344 129.469 89.6593 133.394 94.5009 133.394Z" fill="white"/>
<path d="M107.153 155.312C111.995 155.312 115.92 151.387 115.92 146.546C115.92 141.704 111.995 137.779 107.153 137.779C102.312 137.779 98.3867 141.704 98.3867 146.546C98.3867 151.387 102.312 155.312 107.153 155.312Z" fill="white"/>
<path d="M119.806 177.224C124.647 177.224 128.572 173.299 128.572 168.458C128.572 163.616 124.647 159.691 119.806 159.691C114.964 159.691 111.039 163.616 111.039 168.458C111.039 173.299 114.964 177.224 119.806 177.224Z" fill="white"/>
<path d="M119.806 221.06C124.647 221.06 128.572 217.135 128.572 212.294C128.572 207.452 124.647 203.527 119.806 203.527C114.964 203.527 111.039 207.452 111.039 212.294C111.039 217.135 114.964 221.06 119.806 221.06Z" fill="white"/>
<path d="M145.114 221.06C149.956 221.06 153.881 217.135 153.881 212.294C153.881 207.452 149.956 203.527 145.114 203.527C140.273 203.527 136.348 207.452 136.348 212.294C136.348 217.135 140.273 221.06 145.114 221.06Z" fill="white"/>
<path d="M170.423 221.06C175.264 221.06 179.189 217.135 179.189 212.294C179.189 207.452 175.264 203.527 170.423 203.527C165.581 203.527 161.656 207.452 161.656 212.294C161.656 217.135 165.581 221.06 170.423 221.06Z" fill="white"/>
<path d="M195.729 221.06C200.571 221.06 204.496 217.135 204.496 212.294C204.496 207.452 200.571 203.527 195.729 203.527C190.888 203.527 186.963 207.452 186.963 212.294C186.963 217.135 190.888 221.06 195.729 221.06Z" fill="white"/>
<path d="M221.032 221.06C225.874 221.06 229.799 217.135 229.799 212.294C229.799 207.452 225.874 203.527 221.032 203.527C216.19 203.527 212.266 207.452 212.266 212.294C212.266 217.135 216.19 221.06 221.032 221.06Z" fill="white"/>
<path d="M246.343 221.06C251.184 221.06 255.109 217.135 255.109 212.294C255.109 207.452 251.184 203.527 246.343 203.527C241.501 203.527 237.576 207.452 237.576 212.294C237.576 217.135 241.501 221.06 246.343 221.06Z" fill="white"/>
<path d="M271.647 221.06C276.489 221.06 280.414 217.135 280.414 212.294C280.414 207.452 276.489 203.527 271.647 203.527C266.806 203.527 262.881 207.452 262.881 212.294C262.881 217.135 266.806 221.06 271.647 221.06Z" fill="white"/>
<path d="M410.831 199.144C415.672 199.144 419.598 195.219 419.598 190.378C419.598 185.536 415.672 181.611 410.831 181.611C405.989 181.611 402.064 185.536 402.064 190.378C402.064 195.219 405.989 199.144 410.831 199.144Z" fill="white"/>
<path d="M423.487 177.224C428.329 177.224 432.254 173.299 432.254 168.458C432.254 163.616 428.329 159.691 423.487 159.691C418.646 159.691 414.721 163.616 414.721 168.458C414.721 173.299 418.646 177.224 423.487 177.224Z" fill="white"/>
<path d="M436.139 155.312C440.981 155.312 444.906 151.387 444.906 146.546C444.906 141.704 440.981 137.779 436.139 137.779C431.298 137.779 427.373 141.704 427.373 146.546C427.373 151.387 431.298 155.312 436.139 155.312Z" fill="white"/>
<path d="M81.8485 155.312C86.6901 155.312 90.615 151.387 90.615 146.546C90.615 141.704 86.6901 137.779 81.8485 137.779C77.0069 137.779 73.082 141.704 73.082 146.546C73.082 151.387 77.0069 155.312 81.8485 155.312Z" fill="white"/>
<path d="M94.5009 177.224C99.3425 177.224 103.267 173.299 103.267 168.458C103.267 163.616 99.3425 159.691 94.5009 159.691C89.6593 159.691 85.7344 163.616 85.7344 168.458C85.7344 173.299 89.6593 177.224 94.5009 177.224Z" fill="white"/>
<path d="M107.153 199.144C111.995 199.144 115.92 195.219 115.92 190.378C115.92 185.536 111.995 181.611 107.153 181.611C102.312 181.611 98.3867 185.536 98.3867 190.378C98.3867 195.219 102.312 199.144 107.153 199.144Z" fill="white"/>
<path d="M107.153 242.974C111.995 242.974 115.92 239.049 115.92 234.208C115.92 229.366 111.995 225.441 107.153 225.441C102.312 225.441 98.3867 229.366 98.3867 234.208C98.3867 239.049 102.312 242.974 107.153 242.974Z" fill="white"/>
<path d="M132.464 242.974C137.305 242.974 141.23 239.049 141.23 234.208C141.23 229.366 137.305 225.441 132.464 225.441C127.622 225.441 123.697 229.366 123.697 234.208C123.697 239.049 127.622 242.974 132.464 242.974Z" fill="white"/>
<path d="M157.77 242.974C162.612 242.974 166.537 239.049 166.537 234.208C166.537 229.366 162.612 225.441 157.77 225.441C152.929 225.441 149.004 229.366 149.004 234.208C149.004 239.049 152.929 242.974 157.77 242.974Z" fill="white"/>
<path d="M183.071 242.974C187.913 242.974 191.838 239.049 191.838 234.208C191.838 229.366 187.913 225.441 183.071 225.441C178.23 225.441 174.305 229.366 174.305 234.208C174.305 239.049 178.23 242.974 183.071 242.974Z" fill="white"/>
<path d="M208.378 242.974C213.219 242.974 217.144 239.049 217.144 234.208C217.144 229.366 213.219 225.441 208.378 225.441C203.536 225.441 199.611 229.366 199.611 234.208C199.611 239.049 203.536 242.974 208.378 242.974Z" fill="white"/>
<path d="M233.684 242.974C238.526 242.974 242.451 239.049 242.451 234.208C242.451 229.366 238.526 225.441 233.684 225.441C228.843 225.441 224.918 229.366 224.918 234.208C224.918 239.049 228.843 242.974 233.684 242.974Z" fill="white"/>
<path d="M259.001 242.974C263.842 242.974 267.767 239.049 267.767 234.208C267.767 229.366 263.842 225.441 259.001 225.441C254.159 225.441 250.234 229.366 250.234 234.208C250.234 239.049 254.159 242.974 259.001 242.974Z" fill="white"/>
<path d="M268.743 262.888C273.585 262.888 277.509 258.964 277.509 254.122C277.509 249.28 273.585 245.355 268.743 245.355C263.901 245.355 259.977 249.28 259.977 254.122C259.977 258.964 263.901 262.888 268.743 262.888Z" fill="white"/>
<path d="M410.831 242.974C415.672 242.974 419.598 239.049 419.598 234.208C419.598 229.366 415.672 225.441 410.831 225.441C405.989 225.441 402.064 229.366 402.064 234.208C402.064 239.049 405.989 242.974 410.831 242.974Z" fill="white"/>
<path d="M436.139 199.144C440.981 199.144 444.906 195.219 444.906 190.378C444.906 185.536 440.981 181.611 436.139 181.611C431.298 181.611 427.373 185.536 427.373 190.378C427.373 195.219 431.298 199.144 436.139 199.144Z" fill="white"/>
<path d="M448.794 177.224C453.635 177.224 457.56 173.299 457.56 168.458C457.56 163.616 453.635 159.691 448.794 159.691C443.952 159.691 440.027 163.616 440.027 168.458C440.027 173.299 443.952 177.224 448.794 177.224Z" fill="white"/>
<path d="M69.1943 177.224C74.0358 177.224 77.9607 173.299 77.9607 168.458C77.9607 163.616 74.0358 159.691 69.1943 159.691C64.3527 159.691 60.4277 163.616 60.4277 168.458C60.4277 173.299 64.3527 177.224 69.1943 177.224Z" fill="white"/>
<path d="M81.8485 199.144C86.6901 199.144 90.615 195.219 90.615 190.378C90.615 185.536 86.6901 181.611 81.8485 181.611C77.0069 181.611 73.082 185.536 73.082 190.378C73.082 195.219 77.0069 199.144 81.8485 199.144Z" fill="white"/>
<path d="M94.5009 221.06C99.3425 221.06 103.267 217.135 103.267 212.294C103.267 207.452 99.3425 203.527 94.5009 203.527C89.6593 203.527 85.7344 207.452 85.7344 212.294C85.7344 217.135 89.6593 221.06 94.5009 221.06Z" fill="white"/>
<path d="M94.5009 264.888C99.3425 264.888 103.267 260.964 103.267 256.122C103.267 251.28 99.3425 247.355 94.5009 247.355C89.6593 247.355 85.7344 251.28 85.7344 256.122C85.7344 260.964 89.6593 264.888 94.5009 264.888Z" fill="white"/>
<path d="M119.806 264.888C124.647 264.888 128.572 260.964 128.572 256.122C128.572 251.28 124.647 247.355 119.806 247.355C114.964 247.355 111.039 251.28 111.039 256.122C111.039 260.964 114.964 264.888 119.806 264.888Z" fill="white"/>
<path d="M145.114 264.888C149.956 264.888 153.881 260.964 153.881 256.122C153.881 251.28 149.956 247.355 145.114 247.355C140.273 247.355 136.348 251.28 136.348 256.122C136.348 260.964 140.273 264.888 145.114 264.888Z" fill="white"/>
<path d="M170.423 264.888C175.264 264.888 179.189 260.964 179.189 256.122C179.189 251.28 175.264 247.355 170.423 247.355C165.581 247.355 161.656 251.28 161.656 256.122C161.656 260.964 165.581 264.888 170.423 264.888Z" fill="white"/>
<path d="M195.729 264.888C200.571 264.888 204.496 260.964 204.496 256.122C204.496 251.28 200.571 247.355 195.729 247.355C190.888 247.355 186.963 251.28 186.963 256.122C186.963 260.964 190.888 264.888 195.729 264.888Z" fill="white"/>
<path d="M221.032 264.888C225.874 264.888 229.799 260.964 229.799 256.122C229.799 251.28 225.874 247.355 221.032 247.355C216.19 247.355 212.266 251.28 212.266 256.122C212.266 260.964 216.19 264.888 221.032 264.888Z" fill="white"/>
<path d="M246.343 264.888C251.184 264.888 255.109 260.964 255.109 256.122C255.109 251.28 251.184 247.355 246.343 247.355C241.501 247.355 237.576 251.28 237.576 256.122C237.576 260.964 241.501 264.888 246.343 264.888Z" fill="white"/>
<path d="M322.261 264.978C327.102 264.978 331.027 261.053 331.027 256.212C331.027 251.37 327.102 247.445 322.261 247.445C317.419 247.445 313.494 251.37 313.494 256.212C313.494 261.053 317.419 264.978 322.261 264.978Z" fill="white"/>
<path d="M301.738 268.327C304.621 268.327 306.958 265.99 306.958 263.107C306.958 260.224 304.621 257.887 301.738 257.887C298.855 257.887 296.518 260.224 296.518 263.107C296.518 265.99 298.855 268.327 301.738 268.327Z" fill="white"/>
<path d="M280.674 239.814C284.569 239.814 287.727 236.657 287.727 232.762C287.727 228.867 284.569 225.709 280.674 225.709C276.779 225.709 273.621 228.867 273.621 232.762C273.621 236.657 276.779 239.814 280.674 239.814Z" fill="white"/>
<path d="M287.132 222.264C288.862 222.264 290.264 220.862 290.264 219.132C290.264 217.402 288.862 216 287.132 216C285.402 216 284 217.402 284 219.132C284 220.862 285.402 222.264 287.132 222.264Z" fill="white"/>
<path d="M419.367 210.895C422.343 210.895 424.756 208.482 424.756 205.506C424.756 202.53 422.343 200.117 419.367 200.117C416.391 200.117 413.979 202.53 413.979 205.506C413.979 208.482 416.391 210.895 419.367 210.895Z" fill="white"/>
<path d="M427.15 223.966C429.468 223.966 431.347 222.087 431.347 219.769C431.347 217.451 429.468 215.572 427.15 215.572C424.832 215.572 422.953 217.451 422.953 219.769C422.953 222.087 424.832 223.966 427.15 223.966Z" fill="white"/>
<path d="M402.75 209.152C404.586 209.152 406.076 207.663 406.076 205.826C406.076 203.989 404.586 202.5 402.75 202.5C400.913 202.5 399.424 203.989 399.424 205.826C399.424 207.663 400.913 209.152 402.75 209.152Z" fill="white"/>
<path d="M403.462 224.126C405.387 224.126 406.948 222.565 406.948 220.64C406.948 218.715 405.387 217.154 403.462 217.154C401.537 217.154 399.977 218.715 399.977 220.64C399.977 222.565 401.537 224.126 403.462 224.126Z" fill="white"/>
<path d="M364.905 243.266C369.229 243.266 372.735 239.76 372.735 235.436C372.735 231.111 369.229 227.605 364.905 227.605C360.58 227.605 357.074 231.111 357.074 235.436C357.074 239.76 360.58 243.266 364.905 243.266Z" fill="white"/>
<path d="M347.567 264.888C352.409 264.888 356.334 260.964 356.334 256.122C356.334 251.28 352.409 247.355 347.567 247.355C342.726 247.355 338.801 251.28 338.801 256.122C338.801 260.964 342.726 264.888 347.567 264.888Z" fill="white"/>
<path d="M339.843 245.355C342.438 245.355 344.541 243.252 344.541 240.657C344.541 238.062 342.438 235.959 339.843 235.959C337.248 235.959 335.145 238.062 335.145 240.657C335.145 243.252 337.248 245.355 339.843 245.355Z" fill="white"/>
<path d="M372.872 264.888C377.714 264.888 381.639 260.964 381.639 256.122C381.639 251.28 377.714 247.355 372.872 247.355C368.03 247.355 364.105 251.28 364.105 256.122C364.105 260.964 368.03 264.888 372.872 264.888Z" fill="white"/>
<path d="M387.761 243.05C392.602 243.05 396.527 239.126 396.527 234.284C396.527 229.442 392.602 225.518 387.761 225.518C382.919 225.518 378.994 229.442 378.994 234.284C378.994 239.126 382.919 243.05 387.761 243.05Z" fill="white"/>
<path d="M398.179 264.888C403.02 264.888 406.945 260.964 406.945 256.122C406.945 251.28 403.02 247.355 398.179 247.355C393.337 247.355 389.412 251.28 389.412 256.122C389.412 260.964 393.337 264.888 398.179 264.888Z" fill="white"/>
<path d="M423.487 264.888C428.329 264.888 432.254 260.964 432.254 256.122C432.254 251.28 428.329 247.355 423.487 247.355C418.646 247.355 414.721 251.28 414.721 256.122C414.721 260.964 418.646 264.888 423.487 264.888Z" fill="white"/>
<path d="M436.139 242.974C440.981 242.974 444.906 239.049 444.906 234.208C444.906 229.366 440.981 225.441 436.139 225.441C431.298 225.441 427.373 229.366 427.373 234.208C427.373 239.049 431.298 242.974 436.139 242.974Z" fill="white"/>
<path d="M448.794 221.06C453.635 221.06 457.56 217.135 457.56 212.294C457.56 207.452 453.635 203.527 448.794 203.527C443.952 203.527 440.027 207.452 440.027 212.294C440.027 217.135 443.952 221.06 448.794 221.06Z" fill="white"/>
<path d="M461.45 199.144C466.292 199.144 470.217 195.219 470.217 190.378C470.217 185.536 466.292 181.611 461.45 181.611C456.608 181.611 452.684 185.536 452.684 190.378C452.684 195.219 456.608 199.144 461.45 199.144Z" fill="white"/>
<path d="M69.1943 221.06C74.0358 221.06 77.9607 217.135 77.9607 212.294C77.9607 207.452 74.0358 203.527 69.1943 203.527C64.3527 203.527 60.4277 207.452 60.4277 212.294C60.4277 217.135 64.3527 221.06 69.1943 221.06Z" fill="white"/>
<path d="M81.8485 242.974C86.6901 242.974 90.615 239.049 90.615 234.208C90.615 229.366 86.6901 225.441 81.8485 225.441C77.0069 225.441 73.082 229.366 73.082 234.208C73.082 239.049 77.0069 242.974 81.8485 242.974Z" fill="white"/>
<path d="M233.684 286.81C238.526 286.81 242.451 282.885 242.451 278.044C242.451 273.202 238.526 269.277 233.684 269.277C228.843 269.277 224.918 273.202 224.918 278.044C224.918 282.885 228.843 286.81 233.684 286.81Z" fill="white"/>
<path d="M259.001 286.81C263.842 286.81 267.767 282.885 267.767 278.044C267.767 273.202 263.842 269.277 259.001 269.277C254.159 269.277 250.234 273.202 250.234 278.044C250.234 282.885 254.159 286.81 259.001 286.81Z" fill="white"/>
<path d="M309.604 286.81C314.446 286.81 318.371 282.885 318.371 278.044C318.371 273.202 314.446 269.277 309.604 269.277C304.763 269.277 300.838 273.202 300.838 278.044C300.838 282.885 304.763 286.81 309.604 286.81Z" fill="white"/>
<path d="M334.915 286.81C339.757 286.81 343.681 282.885 343.681 278.044C343.681 273.202 339.757 269.277 334.915 269.277C330.073 269.277 326.148 273.202 326.148 278.044C326.148 282.885 330.073 286.81 334.915 286.81Z" fill="white"/>
<path d="M360.222 286.81C365.063 286.81 368.988 282.885 368.988 278.044C368.988 273.202 365.063 269.277 360.222 269.277C355.38 269.277 351.455 273.202 351.455 278.044C351.455 282.885 355.38 286.81 360.222 286.81Z" fill="white"/>
<path d="M385.526 286.81C390.368 286.81 394.293 282.885 394.293 278.044C394.293 273.202 390.368 269.277 385.526 269.277C380.685 269.277 376.76 273.202 376.76 278.044C376.76 282.885 380.685 286.81 385.526 286.81Z" fill="white"/>
<path d="M410.831 286.81C415.672 286.81 419.598 282.885 419.598 278.044C419.598 273.202 415.672 269.277 410.831 269.277C405.989 269.277 402.064 273.202 402.064 278.044C402.064 282.885 405.989 286.81 410.831 286.81Z" fill="white"/>
<path d="M436.139 286.81C440.981 286.81 444.906 282.885 444.906 278.044C444.906 273.202 440.981 269.277 436.139 269.277C431.298 269.277 427.373 273.202 427.373 278.044C427.373 282.885 431.298 286.81 436.139 286.81Z" fill="white"/>
<path d="M448.794 264.888C453.635 264.888 457.56 260.964 457.56 256.122C457.56 251.28 453.635 247.355 448.794 247.355C443.952 247.355 440.027 251.28 440.027 256.122C440.027 260.964 443.952 264.888 448.794 264.888Z" fill="white"/>
<path d="M461.45 242.974C466.292 242.974 470.217 239.049 470.217 234.208C470.217 229.366 466.292 225.441 461.45 225.441C456.608 225.441 452.684 229.366 452.684 234.208C452.684 239.049 456.608 242.974 461.45 242.974Z" fill="white"/>
<path d="M474.1 221.06C478.942 221.06 482.867 217.135 482.867 212.294C482.867 207.452 478.942 203.527 474.1 203.527C469.259 203.527 465.334 207.452 465.334 212.294C465.334 217.135 469.259 221.06 474.1 221.06Z" fill="white"/>
<path d="M271.647 308.726C276.489 308.726 280.414 304.801 280.414 299.96C280.414 295.118 276.489 291.193 271.647 291.193C266.806 291.193 262.881 295.118 262.881 299.96C262.881 304.801 266.806 308.726 271.647 308.726Z" fill="white"/>
<path d="M296.956 308.726C301.798 308.726 305.722 304.801 305.722 299.96C305.722 295.118 301.798 291.193 296.956 291.193C292.114 291.193 288.189 295.118 288.189 299.96C288.189 304.801 292.114 308.726 296.956 308.726Z" fill="white"/>
<path d="M286.599 282.941C289.193 282.941 291.297 280.838 291.297 278.243C291.297 275.648 289.193 273.545 286.599 273.545C284.004 273.545 281.9 275.648 281.9 278.243C281.9 280.838 284.004 282.941 286.599 282.941Z" fill="white"/>
<path d="M322.261 308.726C327.102 308.726 331.027 304.801 331.027 299.96C331.027 295.118 327.102 291.193 322.261 291.193C317.419 291.193 313.494 295.118 313.494 299.96C313.494 304.801 317.419 308.726 322.261 308.726Z" fill="white"/>
<path d="M347.567 308.726C352.409 308.726 356.334 304.801 356.334 299.96C356.334 295.118 352.409 291.193 347.567 291.193C342.726 291.193 338.801 295.118 338.801 299.96C338.801 304.801 342.726 308.726 347.567 308.726Z" fill="white"/>
<path d="M372.872 308.726C377.714 308.726 381.639 304.801 381.639 299.96C381.639 295.118 377.714 291.193 372.872 291.193C368.03 291.193 364.105 295.118 364.105 299.96C364.105 304.801 368.03 308.726 372.872 308.726Z" fill="white"/>
<path d="M398.179 308.726C403.02 308.726 406.945 304.801 406.945 299.96C406.945 295.118 403.02 291.193 398.179 291.193C393.337 291.193 389.412 295.118 389.412 299.96C389.412 304.801 393.337 308.726 398.179 308.726Z" fill="white"/>
<path d="M423.487 308.726C428.329 308.726 432.254 304.801 432.254 299.96C432.254 295.118 428.329 291.193 423.487 291.193C418.646 291.193 414.721 295.118 414.721 299.96C414.721 304.801 418.646 308.726 423.487 308.726Z" fill="white"/>
<path d="M448.794 308.726C453.635 308.726 457.56 304.801 457.56 299.96C457.56 295.118 453.635 291.193 448.794 291.193C443.952 291.193 440.027 295.118 440.027 299.96C440.027 304.801 443.952 308.726 448.794 308.726Z" fill="white"/>
<path d="M461.45 286.81C466.292 286.81 470.217 282.885 470.217 278.044C470.217 273.202 466.292 269.277 461.45 269.277C456.608 269.277 452.684 273.202 452.684 278.044C452.684 282.885 456.608 286.81 461.45 286.81Z" fill="white"/>
<path d="M474.1 264.888C478.942 264.888 482.867 260.964 482.867 256.122C482.867 251.28 478.942 247.355 474.1 247.355C469.259 247.355 465.334 251.28 465.334 256.122C465.334 260.964 469.259 264.888 474.1 264.888Z" fill="white"/>
<path d="M486.757 242.974C491.598 242.974 495.523 239.049 495.523 234.208C495.523 229.366 491.598 225.441 486.757 225.441C481.915 225.441 477.99 229.366 477.99 234.208C477.99 239.049 481.915 242.974 486.757 242.974Z" fill="white"/>
<path d="M259.001 330.642C263.842 330.642 267.767 326.717 267.767 321.876C267.767 317.034 263.842 313.109 259.001 313.109C254.159 313.109 250.234 317.034 250.234 321.876C250.234 326.717 254.159 330.642 259.001 330.642Z" fill="white"/>
<path d="M284.3 330.642C289.141 330.642 293.066 326.717 293.066 321.876C293.066 317.034 289.141 313.109 284.3 313.109C279.458 313.109 275.533 317.034 275.533 321.876C275.533 326.717 279.458 330.642 284.3 330.642Z" fill="white"/>
<path d="M309.604 330.642C314.446 330.642 318.371 326.717 318.371 321.876C318.371 317.034 314.446 313.109 309.604 313.109C304.763 313.109 300.838 317.034 300.838 321.876C300.838 326.717 304.763 330.642 309.604 330.642Z" fill="white"/>
<path d="M334.915 330.642C339.757 330.642 343.681 326.717 343.681 321.876C343.681 317.034 339.757 313.109 334.915 313.109C330.073 313.109 326.148 317.034 326.148 321.876C326.148 326.717 330.073 330.642 334.915 330.642Z" fill="white"/>
<path d="M360.222 330.642C365.063 330.642 368.988 326.717 368.988 321.876C368.988 317.034 365.063 313.109 360.222 313.109C355.38 313.109 351.455 317.034 351.455 321.876C351.455 326.717 355.38 330.642 360.222 330.642Z" fill="white"/>
<path d="M385.526 330.642C390.368 330.642 394.293 326.717 394.293 321.876C394.293 317.034 390.368 313.109 385.526 313.109C380.685 313.109 376.76 317.034 376.76 321.876C376.76 326.717 380.685 330.642 385.526 330.642Z" fill="white"/>
<path d="M410.831 330.642C415.672 330.642 419.598 326.717 419.598 321.876C419.598 317.034 415.672 313.109 410.831 313.109C405.989 313.109 402.064 317.034 402.064 321.876C402.064 326.717 405.989 330.642 410.831 330.642Z" fill="white"/>
<path d="M436.139 330.642C440.981 330.642 444.906 326.717 444.906 321.876C444.906 317.034 440.981 313.109 436.139 313.109C431.298 313.109 427.373 317.034 427.373 321.876C427.373 326.717 431.298 330.642 436.139 330.642Z" fill="white"/>
<path d="M461.45 330.642C466.292 330.642 470.217 326.717 470.217 321.876C470.217 317.034 466.292 313.109 461.45 313.109C456.608 313.109 452.684 317.034 452.684 321.876C452.684 326.717 456.608 330.642 461.45 330.642Z" fill="white"/>
<path d="M474.1 308.726C478.942 308.726 482.867 304.801 482.867 299.96C482.867 295.118 478.942 291.193 474.1 291.193C469.259 291.193 465.334 295.118 465.334 299.96C465.334 304.801 469.259 308.726 474.1 308.726Z" fill="white"/>
<path d="M486.757 286.81C491.598 286.81 495.523 282.885 495.523 278.044C495.523 273.202 491.598 269.277 486.757 269.277C481.915 269.277 477.99 273.202 477.99 278.044C477.99 282.885 481.915 286.81 486.757 286.81Z" fill="white"/>
<path d="M499.409 264.888C504.251 264.888 508.176 260.964 508.176 256.122C508.176 251.28 504.251 247.355 499.409 247.355C494.567 247.355 490.643 251.28 490.643 256.122C490.643 260.964 494.567 264.888 499.409 264.888Z" fill="white"/>
<path d="M271.647 352.556C276.489 352.556 280.414 348.631 280.414 343.79C280.414 338.948 276.489 335.023 271.647 335.023C266.806 335.023 262.881 338.948 262.881 343.79C262.881 348.631 266.806 352.556 271.647 352.556Z" fill="white"/>
<path d="M296.956 352.556C301.798 352.556 305.722 348.631 305.722 343.79C305.722 338.948 301.798 335.023 296.956 335.023C292.114 335.023 288.189 338.948 288.189 343.79C288.189 348.631 292.114 352.556 296.956 352.556Z" fill="white"/>
<path d="M322.261 352.556C327.102 352.556 331.027 348.631 331.027 343.79C331.027 338.948 327.102 335.023 322.261 335.023C317.419 335.023 313.494 338.948 313.494 343.79C313.494 348.631 317.419 352.556 322.261 352.556Z" fill="white"/>
<path d="M347.567 352.556C352.409 352.556 356.334 348.631 356.334 343.79C356.334 338.948 352.409 335.023 347.567 335.023C342.726 335.023 338.801 338.948 338.801 343.79C338.801 348.631 342.726 352.556 347.567 352.556Z" fill="white"/>
<path d="M372.872 352.556C377.714 352.556 381.639 348.631 381.639 343.79C381.639 338.948 377.714 335.023 372.872 335.023C368.03 335.023 364.105 338.948 364.105 343.79C364.105 348.631 368.03 352.556 372.872 352.556Z" fill="white"/>
<path d="M398.179 352.556C403.02 352.556 406.945 348.631 406.945 343.79C406.945 338.948 403.02 335.023 398.179 335.023C393.337 335.023 389.412 338.948 389.412 343.79C389.412 348.631 393.337 352.556 398.179 352.556Z" fill="white"/>
<path d="M423.487 352.556C428.329 352.556 432.254 348.631 432.254 343.79C432.254 338.948 428.329 335.023 423.487 335.023C418.646 335.023 414.721 338.948 414.721 343.79C414.721 348.631 418.646 352.556 423.487 352.556Z" fill="white"/>
<path d="M448.794 352.556C453.635 352.556 457.56 348.631 457.56 343.79C457.56 338.948 453.635 335.023 448.794 335.023C443.952 335.023 440.027 338.948 440.027 343.79C440.027 348.631 443.952 352.556 448.794 352.556Z" fill="white"/>
<path d="M486.757 330.642C491.598 330.642 495.523 326.717 495.523 321.876C495.523 317.034 491.598 313.109 486.757 313.109C481.915 313.109 477.99 317.034 477.99 321.876C477.99 326.717 481.915 330.642 486.757 330.642Z" fill="white"/>
<path d="M499.409 308.726C504.251 308.726 508.176 304.801 508.176 299.96C508.176 295.118 504.251 291.193 499.409 291.193C494.567 291.193 490.643 295.118 490.643 299.96C490.643 304.801 494.567 308.726 499.409 308.726Z" fill="white"/>
<path d="M512.06 286.81C516.901 286.81 520.826 282.885 520.826 278.044C520.826 273.202 516.901 269.277 512.06 269.277C507.218 269.277 503.293 273.202 503.293 278.044C503.293 282.885 507.218 286.81 512.06 286.81Z" fill="white"/>
<path d="M524.718 264.888C529.559 264.888 533.484 260.964 533.484 256.122C533.484 251.28 529.559 247.355 524.718 247.355C519.876 247.355 515.951 251.28 515.951 256.122C515.951 260.964 519.876 264.888 524.718 264.888Z" fill="white"/>
<path d="M537.364 242.974C542.206 242.974 546.131 239.049 546.131 234.208C546.131 229.366 542.206 225.441 537.364 225.441C532.523 225.441 528.598 229.366 528.598 234.208C528.598 239.049 532.523 242.974 537.364 242.974Z" fill="white"/>
<path d="M284.3 374.466C289.141 374.466 293.066 370.542 293.066 365.7C293.066 360.858 289.141 356.934 284.3 356.934C279.458 356.934 275.533 360.858 275.533 365.7C275.533 370.542 279.458 374.466 284.3 374.466Z" fill="white"/>
<path d="M309.604 374.466C314.446 374.466 318.371 370.542 318.371 365.7C318.371 360.858 314.446 356.934 309.604 356.934C304.763 356.934 300.838 360.858 300.838 365.7C300.838 370.542 304.763 374.466 309.604 374.466Z" fill="white"/>
<path d="M334.915 374.466C339.757 374.466 343.681 370.542 343.681 365.7C343.681 360.858 339.757 356.934 334.915 356.934C330.073 356.934 326.148 360.858 326.148 365.7C326.148 370.542 330.073 374.466 334.915 374.466Z" fill="white"/>
<path d="M360.222 374.466C365.063 374.466 368.988 370.542 368.988 365.7C368.988 360.858 365.063 356.934 360.222 356.934C355.38 356.934 351.455 360.858 351.455 365.7C351.455 370.542 355.38 374.466 360.222 374.466Z" fill="white"/>
<path d="M385.526 374.466C390.368 374.466 394.293 370.542 394.293 365.7C394.293 360.858 390.368 356.934 385.526 356.934C380.685 356.934 376.76 360.858 376.76 365.7C376.76 370.542 380.685 374.466 385.526 374.466Z" fill="white"/>
<path d="M410.831 374.466C415.672 374.466 419.598 370.542 419.598 365.7C419.598 360.858 415.672 356.934 410.831 356.934C405.989 356.934 402.064 360.858 402.064 365.7C402.064 370.542 405.989 374.466 410.831 374.466Z" fill="white"/>
<path d="M436.139 374.466C440.981 374.466 444.906 370.542 444.906 365.7C444.906 360.858 440.981 356.934 436.139 356.934C431.298 356.934 427.373 360.858 427.373 365.7C427.373 370.542 431.298 374.466 436.139 374.466Z" fill="white"/>
<path d="M461.45 374.466C466.292 374.466 470.217 370.542 470.217 365.7C470.217 360.858 466.292 356.934 461.45 356.934C456.608 356.934 452.684 360.858 452.684 365.7C452.684 370.542 456.608 374.466 461.45 374.466Z" fill="white"/>
<path d="M296.956 396.384C301.798 396.384 305.722 392.46 305.722 387.618C305.722 382.776 301.798 378.852 296.956 378.852C292.114 378.852 288.189 382.776 288.189 387.618C288.189 392.46 292.114 396.384 296.956 396.384Z" fill="white"/>
<path d="M322.261 396.384C327.102 396.384 331.027 392.46 331.027 387.618C331.027 382.776 327.102 378.852 322.261 378.852C317.419 378.852 313.494 382.776 313.494 387.618C313.494 392.46 317.419 396.384 322.261 396.384Z" fill="white"/>
<path d="M347.567 396.384C352.409 396.384 356.334 392.46 356.334 387.618C356.334 382.776 352.409 378.852 347.567 378.852C342.726 378.852 338.801 382.776 338.801 387.618C338.801 392.46 342.726 396.384 347.567 396.384Z" fill="white"/>
<path d="M372.872 396.384C377.714 396.384 381.639 392.46 381.639 387.618C381.639 382.776 377.714 378.852 372.872 378.852C368.03 378.852 364.105 382.776 364.105 387.618C364.105 392.46 368.03 396.384 372.872 396.384Z" fill="white"/>
<path d="M398.179 396.384C403.02 396.384 406.945 392.46 406.945 387.618C406.945 382.776 403.02 378.852 398.179 378.852C393.337 378.852 389.412 382.776 389.412 387.618C389.412 392.46 393.337 396.384 398.179 396.384Z" fill="white"/>
<path d="M423.487 396.384C428.329 396.384 432.254 392.46 432.254 387.618C432.254 382.776 428.329 378.852 423.487 378.852C418.646 378.852 414.721 382.776 414.721 387.618C414.721 392.46 418.646 396.384 423.487 396.384Z" fill="white"/>
<path d="M448.794 396.384C453.635 396.384 457.56 392.46 457.56 387.618C457.56 382.776 453.635 378.852 448.794 378.852C443.952 378.852 440.027 382.776 440.027 387.618C440.027 392.46 443.952 396.384 448.794 396.384Z" fill="white"/>
<path d="M474.1 396.384C478.942 396.384 482.867 392.46 482.867 387.618C482.867 382.776 478.942 378.852 474.1 378.852C469.259 378.852 465.334 382.776 465.334 387.618C465.334 392.46 469.259 396.384 474.1 396.384Z" fill="white"/>
<path d="M284.3 418.302C289.141 418.302 293.066 414.378 293.066 409.536C293.066 404.694 289.141 400.77 284.3 400.77C279.458 400.77 275.533 404.694 275.533 409.536C275.533 414.378 279.458 418.302 284.3 418.302Z" fill="white"/>
<path d="M309.604 418.302C314.446 418.302 318.371 414.378 318.371 409.536C318.371 404.694 314.446 400.77 309.604 400.77C304.763 400.77 300.838 404.694 300.838 409.536C300.838 414.378 304.763 418.302 309.604 418.302Z" fill="white"/>
<path d="M334.915 418.302C339.757 418.302 343.681 414.378 343.681 409.536C343.681 404.694 339.757 400.77 334.915 400.77C330.073 400.77 326.148 404.694 326.148 409.536C326.148 414.378 330.073 418.302 334.915 418.302Z" fill="white"/>
<path d="M360.222 418.302C365.063 418.302 368.988 414.378 368.988 409.536C368.988 404.694 365.063 400.77 360.222 400.77C355.38 400.77 351.455 404.694 351.455 409.536C351.455 414.378 355.38 418.302 360.222 418.302Z" fill="white"/>
<path d="M385.526 418.302C390.368 418.302 394.293 414.378 394.293 409.536C394.293 404.694 390.368 400.77 385.526 400.77C380.685 400.77 376.76 404.694 376.76 409.536C376.76 414.378 380.685 418.302 385.526 418.302Z" fill="white"/>
<path d="M410.831 418.302C415.672 418.302 419.598 414.378 419.598 409.536C419.598 404.694 415.672 400.77 410.831 400.77C405.989 400.77 402.064 404.694 402.064 409.536C402.064 414.378 405.989 418.302 410.831 418.302Z" fill="white"/>
<path d="M436.141 417.615C440.603 417.615 444.22 413.998 444.22 409.536C444.22 405.074 440.603 401.457 436.141 401.457C431.68 401.457 428.062 405.074 428.062 409.536C428.062 413.998 431.68 417.615 436.141 417.615Z" fill="white"/>
<path d="M461.45 418.302C466.292 418.302 470.217 414.378 470.217 409.536C470.217 404.694 466.292 400.77 461.45 400.77C456.608 400.77 452.684 404.694 452.684 409.536C452.684 414.378 456.608 418.302 461.45 418.302Z" fill="white"/>
<path d="M271.647 440.222C276.489 440.222 280.414 436.297 280.414 431.456C280.414 426.614 276.489 422.689 271.647 422.689C266.806 422.689 262.881 426.614 262.881 431.456C262.881 436.297 266.806 440.222 271.647 440.222Z" fill="white"/>
<path d="M296.956 440.222C301.798 440.222 305.722 436.297 305.722 431.456C305.722 426.614 301.798 422.689 296.956 422.689C292.114 422.689 288.189 426.614 288.189 431.456C288.189 436.297 292.114 440.222 296.956 440.222Z" fill="white"/>
<path d="M322.261 440.222C327.102 440.222 331.027 436.297 331.027 431.456C331.027 426.614 327.102 422.689 322.261 422.689C317.419 422.689 313.494 426.614 313.494 431.456C313.494 436.297 317.419 440.222 322.261 440.222Z" fill="white"/>
<path d="M347.567 440.222C352.409 440.222 356.334 436.297 356.334 431.456C356.334 426.614 352.409 422.689 347.567 422.689C342.726 422.689 338.801 426.614 338.801 431.456C338.801 436.297 342.726 440.222 347.567 440.222Z" fill="white"/>
<path d="M372.872 440.222C377.714 440.222 381.639 436.297 381.639 431.456C381.639 426.614 377.714 422.689 372.872 422.689C368.03 422.689 364.105 426.614 364.105 431.456C364.105 436.297 368.03 440.222 372.872 440.222Z" fill="white"/>
<path d="M398.179 440.222C403.02 440.222 406.945 436.297 406.945 431.456C406.945 426.614 403.02 422.689 398.179 422.689C393.337 422.689 389.412 426.614 389.412 431.456C389.412 436.297 393.337 440.222 398.179 440.222Z" fill="white"/>
<path d="M423.487 440.222C428.329 440.222 432.254 436.297 432.254 431.456C432.254 426.614 428.329 422.689 423.487 422.689C418.646 422.689 414.721 426.614 414.721 431.456C414.721 436.297 418.646 440.222 423.487 440.222Z" fill="white"/>
<path d="M448.794 440.222C453.635 440.222 457.56 436.297 457.56 431.456C457.56 426.614 453.635 422.689 448.794 422.689C443.952 422.689 440.027 426.614 440.027 431.456C440.027 436.297 443.952 440.222 448.794 440.222Z" fill="white"/>
<path d="M474.1 440.222C478.942 440.222 482.867 436.297 482.867 431.456C482.867 426.614 478.942 422.689 474.1 422.689C469.259 422.689 465.334 426.614 465.334 431.456C465.334 436.297 469.259 440.222 474.1 440.222Z" fill="white"/>
<path d="M524.718 440.222C529.559 440.222 533.484 436.297 533.484 431.456C533.484 426.614 529.559 422.689 524.718 422.689C519.876 422.689 515.951 426.614 515.951 431.456C515.951 436.297 519.876 440.222 524.718 440.222Z" fill="white"/>
<path d="M284.3 462.136C289.141 462.136 293.066 458.212 293.066 453.37C293.066 448.528 289.141 444.604 284.3 444.604C279.458 444.604 275.533 448.528 275.533 453.37C275.533 458.212 279.458 462.136 284.3 462.136Z" fill="white"/>
<path d="M309.604 462.136C314.446 462.136 318.371 458.212 318.371 453.37C318.371 448.528 314.446 444.604 309.604 444.604C304.763 444.604 300.838 448.528 300.838 453.37C300.838 458.212 304.763 462.136 309.604 462.136Z" fill="white"/>
<path d="M334.915 462.136C339.757 462.136 343.681 458.212 343.681 453.37C343.681 448.528 339.757 444.604 334.915 444.604C330.073 444.604 326.148 448.528 326.148 453.37C326.148 458.212 330.073 462.136 334.915 462.136Z" fill="white"/>
<path d="M360.222 462.136C365.063 462.136 368.988 458.212 368.988 453.37C368.988 448.528 365.063 444.604 360.222 444.604C355.38 444.604 351.455 448.528 351.455 453.37C351.455 458.212 355.38 462.136 360.222 462.136Z" fill="white"/>
<path d="M385.526 462.136C390.368 462.136 394.293 458.212 394.293 453.37C394.293 448.528 390.368 444.604 385.526 444.604C380.685 444.604 376.76 448.528 376.76 453.37C376.76 458.212 380.685 462.136 385.526 462.136Z" fill="white"/>
<path d="M410.831 462.136C415.672 462.136 419.598 458.212 419.598 453.37C419.598 448.528 415.672 444.604 410.831 444.604C405.989 444.604 402.064 448.528 402.064 453.37C402.064 458.212 405.989 462.136 410.831 462.136Z" fill="white"/>
<path d="M436.139 462.136C440.981 462.136 444.906 458.212 444.906 453.37C444.906 448.528 440.981 444.604 436.139 444.604C431.298 444.604 427.373 448.528 427.373 453.37C427.373 458.212 431.298 462.136 436.139 462.136Z" fill="white"/>
<path d="M512.06 462.136C516.901 462.136 520.826 458.212 520.826 453.37C520.826 448.528 516.901 444.604 512.06 444.604C507.218 444.604 503.293 448.528 503.293 453.37C503.293 458.212 507.218 462.136 512.06 462.136Z" fill="white"/>
<path d="M537.364 462.136C542.206 462.136 546.131 458.212 546.131 453.37C546.131 448.528 542.206 444.604 537.364 444.604C532.523 444.604 528.598 448.528 528.598 453.37C528.598 458.212 532.523 462.136 537.364 462.136Z" fill="white"/>
<path d="M296.956 484.035C301.798 484.035 305.722 480.11 305.722 475.268C305.722 470.427 301.798 466.502 296.956 466.502C292.114 466.502 288.189 470.427 288.189 475.268C288.189 480.11 292.114 484.035 296.956 484.035Z" fill="white"/>
<path d="M322.261 484.035C327.102 484.035 331.027 480.11 331.027 475.268C331.027 470.427 327.102 466.502 322.261 466.502C317.419 466.502 313.494 470.427 313.494 475.268C313.494 480.11 317.419 484.035 322.261 484.035Z" fill="white"/>
<path d="M347.567 484.035C352.409 484.035 356.334 480.11 356.334 475.268C356.334 470.427 352.409 466.502 347.567 466.502C342.726 466.502 338.801 470.427 338.801 475.268C338.801 480.11 342.726 484.035 347.567 484.035Z" fill="white"/>
<path d="M372.872 484.035C377.714 484.035 381.639 480.11 381.639 475.268C381.639 470.427 377.714 466.502 372.872 466.502C368.03 466.502 364.105 470.427 364.105 475.268C364.105 480.11 368.03 484.035 372.872 484.035Z" fill="white"/>
<path d="M398.179 484.035C403.02 484.035 406.945 480.11 406.945 475.268C406.945 470.427 403.02 466.502 398.179 466.502C393.337 466.502 389.412 470.427 389.412 475.268C389.412 480.11 393.337 484.035 398.179 484.035Z" fill="white"/>
<path d="M423.487 484.035C428.329 484.035 432.254 480.11 432.254 475.268C432.254 470.427 428.329 466.502 423.487 466.502C418.646 466.502 414.721 470.427 414.721 475.268C414.721 480.11 418.646 484.035 423.487 484.035Z" fill="white"/>
<path d="M524.718 484.035C529.559 484.035 533.484 480.11 533.484 475.268C533.484 470.427 529.559 466.502 524.718 466.502C519.876 466.502 515.951 470.427 515.951 475.268C515.951 480.11 519.876 484.035 524.718 484.035Z" fill="white"/>
<path d="M309.604 505.953C314.446 505.953 318.371 502.028 318.371 497.186C318.371 492.345 314.446 488.42 309.604 488.42C304.763 488.42 300.838 492.345 300.838 497.186C300.838 502.028 304.763 505.953 309.604 505.953Z" fill="white"/>
<path d="M334.915 505.953C339.757 505.953 343.681 502.028 343.681 497.186C343.681 492.345 339.757 488.42 334.915 488.42C330.073 488.42 326.148 492.345 326.148 497.186C326.148 502.028 330.073 505.953 334.915 505.953Z" fill="white"/>
<path d="M360.222 505.953C365.063 505.953 368.988 502.028 368.988 497.186C368.988 492.345 365.063 488.42 360.222 488.42C355.38 488.42 351.455 492.345 351.455 497.186C351.455 502.028 355.38 505.953 360.222 505.953Z" fill="white"/>
<path d="M385.526 505.953C390.368 505.953 394.293 502.028 394.293 497.186C394.293 492.345 390.368 488.42 385.526 488.42C380.685 488.42 376.76 492.345 376.76 497.186C376.76 502.028 380.685 505.953 385.526 505.953Z" fill="white"/>
<path d="M410.831 505.953C415.672 505.953 419.598 502.028 419.598 497.186C419.598 492.345 415.672 488.42 410.831 488.42C405.989 488.42 402.064 492.345 402.064 497.186C402.064 502.028 405.989 505.953 410.831 505.953Z" fill="white"/>
<path d="M436.139 505.953C440.981 505.953 444.906 502.028 444.906 497.186C444.906 492.345 440.981 488.42 436.139 488.42C431.298 488.42 427.373 492.345 427.373 497.186C427.373 502.028 431.298 505.953 436.139 505.953Z" fill="white"/>
<path d="M512.06 505.953C516.901 505.953 520.826 502.028 520.826 497.186C520.826 492.345 516.901 488.42 512.06 488.42C507.218 488.42 503.293 492.345 503.293 497.186C503.293 502.028 507.218 505.953 512.06 505.953Z" fill="white"/>
<path d="M296.956 527.867C301.798 527.867 305.722 523.942 305.722 519.1C305.722 514.259 301.798 510.334 296.956 510.334C292.114 510.334 288.189 514.259 288.189 519.1C288.189 523.942 292.114 527.867 296.956 527.867Z" fill="white"/>
<path d="M322.261 527.867C327.102 527.867 331.027 523.942 331.027 519.1C331.027 514.259 327.102 510.334 322.261 510.334C317.419 510.334 313.494 514.259 313.494 519.1C313.494 523.942 317.419 527.867 322.261 527.867Z" fill="white"/>
<path d="M347.567 527.867C352.409 527.867 356.334 523.942 356.334 519.1C356.334 514.259 352.409 510.334 347.567 510.334C342.726 510.334 338.801 514.259 338.801 519.1C338.801 523.942 342.726 527.867 347.567 527.867Z" fill="white"/>
<path d="M372.872 527.867C377.714 527.867 381.639 523.942 381.639 519.1C381.639 514.259 377.714 510.334 372.872 510.334C368.03 510.334 364.105 514.259 364.105 519.1C364.105 523.942 368.03 527.867 372.872 527.867Z" fill="white"/>
<path d="M398.179 527.867C403.02 527.867 406.945 523.942 406.945 519.1C406.945 514.259 403.02 510.334 398.179 510.334C393.337 510.334 389.412 514.259 389.412 519.1C389.412 523.942 393.337 527.867 398.179 527.867Z" fill="white"/>
<path d="M423.488 520.305C424.153 520.305 424.692 519.766 424.692 519.102C424.692 518.437 424.153 517.898 423.488 517.898C422.824 517.898 422.285 518.437 422.285 519.102C422.285 519.766 422.824 520.305 423.488 520.305Z" fill="white"/>
<path d="M309.604 549.781C314.446 549.781 318.371 545.856 318.371 541.014C318.371 536.173 314.446 532.248 309.604 532.248C304.763 532.248 300.838 536.173 300.838 541.014C300.838 545.856 304.763 549.781 309.604 549.781Z" fill="white"/>
<path d="M334.915 549.781C339.757 549.781 343.681 545.856 343.681 541.014C343.681 536.173 339.757 532.248 334.915 532.248C330.073 532.248 326.148 536.173 326.148 541.014C326.148 545.856 330.073 549.781 334.915 549.781Z" fill="white"/>
<path d="M360.222 549.781C365.063 549.781 368.988 545.856 368.988 541.014C368.988 536.173 365.063 532.248 360.222 532.248C355.38 532.248 351.455 536.173 351.455 541.014C351.455 545.856 355.38 549.781 360.222 549.781Z" fill="white"/>
<path d="M385.526 549.781C390.368 549.781 394.293 545.856 394.293 541.014C394.293 536.173 390.368 532.248 385.526 532.248C380.685 532.248 376.76 536.173 376.76 541.014C376.76 545.856 380.685 549.781 385.526 549.781Z" fill="white"/>
<path d="M322.261 571.701C327.102 571.701 331.027 567.776 331.027 562.934C331.027 558.093 327.102 554.168 322.261 554.168C317.419 554.168 313.494 558.093 313.494 562.934C313.494 567.776 317.419 571.701 322.261 571.701Z" fill="white"/>
<path d="M347.567 571.701C352.409 571.701 356.334 567.776 356.334 562.934C356.334 558.093 352.409 554.168 347.567 554.168C342.726 554.168 338.801 558.093 338.801 562.934C338.801 567.776 342.726 571.701 347.567 571.701Z" fill="white"/>
<path d="M372.872 571.701C377.714 571.701 381.639 567.776 381.639 562.934C381.639 558.093 377.714 554.168 372.872 554.168C368.03 554.168 364.105 558.093 364.105 562.934C364.105 567.776 368.03 571.701 372.872 571.701Z" fill="white"/>
<path d="M430.054 52.3542C430.054 52.3542 439.273 62.0489 450.25 68.2636C464.206 76.1641 482.556 79.4362 482.556 79.4362C482.556 79.4362 466.911 76.358 450.35 65.5375C436.757 56.655 432.558 45.4142 432.558 45.4142L430.054 52.3542Z" fill="#FFC300"/>
<path d="M432.554 45.207L429.968 52.375L429.999 52.4073C430.091 52.504 439.351 62.1809 450.212 68.3293C457.428 72.4143 465.833 75.2365 471.614 76.8851C477.877 78.6709 482.554 79.4386 482.554 79.4386C482.515 79.4301 478.592 78.574 472.682 76.4774C467.229 74.5426 458.935 71.063 450.387 65.4792C443.378 60.9002 438.921 55.6823 436.417 52.1119C433.703 48.2426 432.634 45.4202 432.623 45.3919L432.554 45.207ZM430.135 52.3399L432.559 45.6221C432.839 46.3034 433.961 48.8635 436.295 52.1904C438.806 55.7727 443.276 61.0074 450.306 65.6013C458.868 71.1949 467.175 74.6786 472.635 76.616C475.087 77.4857 477.201 78.1306 478.839 78.5879C476.954 78.1594 474.47 77.5492 471.65 76.7451C465.877 75.099 457.484 72.2805 450.281 68.2043C439.757 62.2442 430.735 52.9628 430.135 52.3399Z" fill="#FFC300"/>
<path d="M442.282 131.165C442.282 131.165 451.977 121.946 458.191 110.969C466.092 97.0132 469.364 78.6625 469.364 78.6625C469.364 78.6625 466.286 94.3077 455.465 110.869C446.583 124.461 435.342 128.661 435.342 128.661L442.282 131.165Z" fill="#FFC300"/>
<path d="M435.133 128.664L442.301 131.251L442.333 131.22C442.43 131.128 452.107 121.868 458.255 111.007C462.34 103.791 465.162 95.3858 466.811 89.6047C468.597 83.3413 469.364 78.6647 469.364 78.6647C469.356 78.7034 468.5 82.6271 466.403 88.5364C464.468 93.9894 460.989 102.284 455.405 110.832C450.826 117.84 445.608 122.298 442.038 124.802C438.168 127.515 435.346 128.585 435.318 128.596L435.133 128.664ZM442.266 131.084L435.548 128.66C436.229 128.38 438.789 127.258 442.116 124.924C445.698 122.412 450.933 117.942 455.527 110.912C461.121 102.351 464.604 94.0442 466.542 88.5837C467.412 86.1313 468.056 84.0179 468.514 82.3802C468.085 84.2643 467.475 86.7491 466.671 89.5684C465.025 95.3416 462.206 103.735 458.13 110.937C452.17 121.462 442.889 130.484 442.266 131.084Z" fill="#FFC300"/>
<path d="M507.29 36.3741C507.29 36.3741 497.596 45.5934 491.381 56.5702C483.48 70.5259 480.208 88.8765 480.208 88.8765C480.208 88.8765 483.287 73.2313 494.107 56.6701C502.99 43.0776 514.23 38.8782 514.23 38.8782L507.29 36.3741Z" fill="#FFC300"/>
<path d="M514.438 38.8746L507.27 36.2883L507.237 36.3192C507.14 36.4115 497.464 45.6715 491.315 56.5322C487.23 63.7483 484.408 72.1533 482.759 77.9343C480.974 84.1978 480.206 88.8744 480.206 88.8744C480.214 88.8357 481.071 84.9119 483.167 79.0026C485.102 73.5497 488.581 65.2556 494.165 56.7073C498.744 49.6987 503.962 45.2412 507.533 42.7373C511.402 40.0236 514.224 38.9544 514.253 38.943L514.438 38.8746ZM507.305 36.4554L514.022 38.8792C513.341 39.1591 510.781 40.2813 507.454 42.6149C503.872 45.1267 498.637 49.5967 494.043 56.6267C488.45 65.1879 484.966 73.4949 483.029 78.9554C482.159 81.4077 481.514 83.5212 481.057 85.1589C481.485 83.2748 482.095 80.79 482.899 77.9707C484.545 72.1975 487.364 63.8039 491.44 56.6017C497.4 46.0772 506.682 37.055 507.305 36.4554Z" fill="#FFC300"/>
<path d="M519.306 114.65C519.306 114.65 510.086 104.955 499.11 98.7403C485.154 90.8398 466.803 87.5677 466.803 87.5677C466.803 87.5677 482.448 90.6459 499.01 101.466C512.602 110.349 516.801 121.59 516.801 121.59L519.306 114.65Z" fill="#FFC300"/>
<path d="M516.805 121.797L519.391 114.629L519.36 114.597C519.268 114.5 510.008 104.823 499.148 98.6746C491.931 94.5896 483.526 91.7674 477.745 90.1188C471.482 88.333 466.805 87.5653 466.805 87.5653C466.844 87.5738 470.768 88.4299 476.677 90.5265C482.13 92.4613 490.424 95.9409 498.972 101.525C505.981 106.104 510.438 111.322 512.942 114.892C515.656 118.761 516.725 121.584 516.737 121.612L516.805 121.797ZM519.224 114.664L516.8 121.382C516.521 120.701 515.398 118.14 513.065 114.814C510.553 111.231 506.083 105.996 499.053 101.403C490.492 95.809 482.185 92.3253 476.724 90.3879C474.272 89.5182 472.159 88.8733 470.521 88.416C472.405 88.8445 474.89 89.4547 477.709 90.2588C483.482 91.9049 491.876 94.7234 499.078 98.7996C509.602 104.76 518.625 114.041 519.224 114.664Z" fill="#FFC300"/>
<circle cx="473.154" cy="45.8634" r="10.4684" transform="rotate(-12.4874 473.154 45.8634)" fill="#FFC300"/>
<path d="M96.1532 63.9771C96.1532 63.9771 88.6312 75.0407 78.8098 82.956C66.3228 93.0186 48.7474 99.2282 48.7474 99.2282C48.7474 99.2282 63.6848 93.6494 78.2683 80.2824C90.2374 69.3097 92.5549 57.5361 92.5549 57.5361L96.1532 63.9771Z" fill="#FFC300"/>
<path d="M92.5244 57.3297L96.2408 63.9823L96.2155 64.0192C96.1402 64.1297 88.5752 75.1823 78.8575 83.0133C72.4008 88.2162 64.5659 92.3663 59.1295 94.9321C53.2393 97.7117 48.7496 99.2288 48.7496 99.2288C48.7864 99.2142 52.5189 97.7321 58.0091 94.7034C63.0753 91.9085 70.6941 87.1278 78.2217 80.2294C84.3934 74.5728 87.9441 68.7 89.8347 64.7703C91.8838 60.5117 92.4803 57.553 92.487 57.5233L92.5244 57.3297ZM96.0702 63.9749L92.5873 57.74C92.4218 58.4577 91.7304 61.1661 89.9682 64.8279C88.0717 68.7707 84.5115 74.662 78.3211 80.3368C70.7823 87.2469 63.1515 92.0337 58.0783 94.8325C55.7998 96.089 53.8192 97.0686 52.2775 97.7859C54.067 97.057 56.4196 96.0513 59.0709 94.7999C64.5 92.2378 72.3242 88.0933 78.7686 82.9012C88.1851 75.3106 95.5798 64.6869 96.0702 63.9749Z" fill="#FFC300"/>
<path d="M96.8979 143.723C96.8979 143.723 85.8343 136.201 77.919 126.38C67.8564 113.893 61.6468 96.3178 61.6468 96.3178C61.6468 96.3178 67.2256 111.255 80.5926 125.839C91.5653 137.808 103.339 140.125 103.339 140.125L96.8979 143.723Z" fill="#FFC300"/>
<path d="M103.545 140.093L96.8927 143.809L96.8558 143.784C96.7453 143.709 85.6927 136.144 77.8617 126.426C72.6588 119.969 68.5087 112.134 65.9429 106.698C63.1633 100.808 61.6462 96.3179 61.6462 96.3179C61.6608 96.3547 63.1429 100.087 66.1716 105.577C68.9665 110.644 73.7472 118.262 80.6456 125.79C86.3022 131.962 92.175 135.512 96.1047 137.403C100.363 139.452 103.322 140.049 103.352 140.055L103.545 140.093ZM96.9001 143.639L103.135 140.156C102.417 139.99 99.7089 139.299 96.0471 137.537C92.1043 135.64 86.213 132.08 80.5382 125.889C73.6281 118.351 68.8413 110.72 66.0425 105.647C64.786 103.368 63.8064 101.388 63.0891 99.8459C63.818 101.635 64.8237 103.988 66.0751 106.639C68.6372 112.068 72.7817 119.893 77.9738 126.337C85.5644 135.753 96.1881 143.148 96.9001 143.639Z" fill="#FFC300"/>
<path d="M45.1928 84.4679C45.1928 84.4679 58.5646 84.8906 70.5103 88.9417C85.6973 94.0928 100.358 105.605 100.358 105.605C100.358 105.605 87.6435 95.9822 68.543 90.8315C52.8651 86.6053 41.6825 90.9573 41.6825 90.9573L45.1928 84.4679Z" fill="#FFC300"/>
<path d="M41.5238 91.0967L45.1494 84.3942L45.1941 84.3958C45.3277 84.4002 58.7133 84.8651 70.5322 88.8738C78.3849 91.5375 86.0872 95.9289 91.1665 99.1442C96.6695 102.628 100.356 105.606 100.356 105.606C100.324 105.583 97.0728 103.225 91.5737 100.213C86.4993 97.4327 78.3804 93.5617 68.5224 90.9023C60.4394 88.7225 53.5784 88.8714 49.2473 89.3808C44.5537 89.9326 41.736 91.0143 41.7073 91.0246L41.5238 91.0967ZM45.2346 84.5422L41.8365 90.8238C42.5312 90.5789 45.1884 89.7115 49.2244 89.2372C53.5696 88.7258 60.4514 88.575 68.5598 90.7609C78.4337 93.4234 86.5642 97.3013 91.6457 100.085C93.9275 101.336 95.8159 102.483 97.2476 103.4C95.6733 102.28 93.5635 100.832 91.0863 99.2645C86.014 96.0534 78.3222 91.668 70.4852 89.009C59.0307 85.1257 46.0985 84.5748 45.2346 84.5422Z" fill="#FFC300"/>
<path d="M22.3312 139.189C22.3312 139.189 29.8532 128.125 39.6746 120.21C52.1615 110.147 69.7369 103.938 69.7369 103.938C69.7369 103.938 54.7996 109.517 40.2161 122.884C28.247 133.856 25.9295 145.63 25.9295 145.63L22.3312 139.189Z" fill="#FFC300"/>
<path d="M25.96 145.836L22.2436 139.184L22.2689 139.147C22.3442 139.036 29.9092 127.984 39.6269 120.153C46.0836 114.95 53.9184 110.8 59.3549 108.234C65.2451 105.454 69.7348 103.937 69.7348 103.937C69.698 103.952 65.9654 105.434 60.4752 108.463C55.409 111.258 47.7903 116.038 40.2626 122.937C34.091 128.593 30.5403 134.466 28.6497 138.396C26.6006 142.654 26.004 145.613 25.9974 145.643L25.96 145.836ZM22.4142 139.191L25.8971 145.426C26.0625 144.708 26.754 142 28.5162 138.338C30.4127 134.395 33.9729 128.504 40.1632 122.829C47.7021 115.919 55.3329 111.132 60.4061 108.334C62.6846 107.077 64.6652 106.097 66.2069 105.38C64.4174 106.109 62.0647 107.115 59.4135 108.366C53.9844 110.928 46.1602 115.073 39.7158 120.265C30.2993 127.855 22.9046 138.479 22.4142 139.191Z" fill="#FFC300"/>
<circle r="10.4684" transform="matrix(-0.9985 -0.0547501 -0.0547501 0.9985 50.7945 63.0768)" fill="#FFC300"/>
<path d="M204.431 472.969C204.431 472.969 211.953 484.033 221.774 491.948C234.261 502.011 251.837 508.22 251.837 508.22C251.837 508.22 236.899 502.642 222.316 489.275C210.347 478.302 208.029 466.528 208.029 466.528L204.431 472.969Z" fill="#FFC300"/>
<path d="M208.06 466.322L204.343 472.974L204.368 473.011C204.444 473.122 212.009 484.174 221.726 492.005C228.183 497.208 236.018 501.359 241.455 503.924C247.345 506.704 251.834 508.221 251.834 508.221C251.798 508.206 248.065 506.724 242.575 503.696C237.509 500.901 229.89 496.12 222.362 489.222C216.191 483.565 212.64 477.692 210.749 473.762C208.7 469.504 208.104 466.545 208.097 466.515L208.06 466.322ZM204.514 472.967L207.997 466.732C208.162 467.45 208.854 470.158 210.616 473.82C212.512 477.763 216.072 483.654 222.263 489.329C229.802 496.239 237.432 501.026 242.506 503.825C244.784 505.081 246.765 506.061 248.306 506.778C246.517 506.049 244.164 505.043 241.513 503.792C236.084 501.23 228.26 497.085 221.815 491.893C212.399 484.303 205.004 473.679 204.514 472.967Z" fill="#FFC300"/>
<path d="M196.958 555.747C196.958 555.747 208.021 548.225 215.936 538.404C225.999 525.917 232.209 508.341 232.209 508.341C232.209 508.341 226.63 523.279 213.263 537.862C202.29 549.831 190.517 552.149 190.517 552.149L196.958 555.747Z" fill="#FFC300"/>
<path d="M190.31 552.116L196.963 555.833L197 555.807C197.11 555.732 208.163 548.167 215.994 538.449C221.197 531.993 225.347 524.158 227.913 518.721C230.692 512.831 232.209 508.341 232.209 508.341C232.195 508.378 230.713 512.111 227.684 517.601C224.889 522.667 220.108 530.286 213.21 537.814C207.553 543.985 201.681 547.536 197.751 549.427C193.492 551.476 190.533 552.072 190.504 552.079L190.31 552.116ZM196.955 555.662L190.72 552.179C191.438 552.014 194.147 551.322 197.808 549.56C201.751 547.664 207.642 544.103 213.317 537.913C220.227 530.374 225.014 522.743 227.813 517.67C229.069 515.392 230.049 513.411 230.766 511.869C230.038 513.659 229.032 516.011 227.78 518.663C225.218 524.092 221.074 531.916 215.882 538.36C208.291 547.777 197.667 555.172 196.955 555.662Z" fill="#FFC300"/>
<path d="M271.984 512.798C271.984 512.798 258.669 511.5 247.014 506.675C232.198 500.539 218.323 488.091 218.323 488.091C218.323 488.091 230.38 498.526 249.101 504.918C264.469 510.163 275.912 506.553 275.912 506.553L271.984 512.798Z" fill="#FFC300"/>
<path d="M276.077 506.428L272.02 512.878L271.975 512.874C271.842 512.86 258.516 511.519 246.985 506.744C239.324 503.572 231.926 498.685 227.069 495.143C221.806 491.306 218.322 488.093 218.322 488.093C218.353 488.119 221.443 490.684 226.732 494.051C231.614 497.157 239.461 501.552 249.124 504.852C257.046 507.557 263.903 507.858 268.258 507.634C272.977 507.391 275.86 506.496 275.889 506.488L276.077 506.428ZM271.945 512.725L275.747 506.679C275.038 506.878 272.329 507.57 268.271 507.778C263.902 508.004 257.025 507.703 249.077 504.991C239.399 501.686 231.54 497.284 226.652 494.173C224.457 492.776 222.648 491.507 221.28 490.498C222.777 491.719 224.787 493.302 227.157 495.029C232.007 498.565 239.395 503.445 247.041 506.612C258.216 511.238 271.085 512.636 271.945 512.725Z" fill="#FFC300"/>
<path d="M271.528 551.208C271.528 551.208 264.006 540.145 254.185 532.23C241.698 522.167 224.122 515.957 224.122 515.957C224.122 515.957 239.06 521.536 253.643 534.903C265.612 545.876 267.93 557.649 267.93 557.649L271.528 551.208Z" fill="#FFC300"/>
<path d="M267.899 557.856L271.616 551.203L271.591 551.166C271.515 551.056 263.95 540.003 254.233 532.172C247.776 526.969 239.941 522.819 234.504 520.253C228.614 517.474 224.125 515.957 224.125 515.957C224.161 515.971 227.894 517.453 233.384 520.482C238.45 523.277 246.069 528.058 253.597 534.956C259.768 540.613 263.319 546.486 265.21 550.415C267.259 554.674 267.855 557.633 267.862 557.662L267.899 557.856ZM271.445 551.211L267.962 557.446C267.797 556.728 267.105 554.019 265.343 550.358C263.447 546.415 259.887 540.524 253.696 534.849C246.157 527.939 238.527 523.152 233.453 520.353C231.175 519.097 229.194 518.117 227.653 517.4C229.442 518.129 231.795 519.134 234.446 520.386C239.875 522.948 247.699 527.092 254.144 532.284C263.56 539.875 270.955 550.499 271.445 551.211Z" fill="#FFC300"/>
<circle cx="242.161" cy="479.243" r="10.4684" transform="rotate(-3.13852 242.161 479.243)" fill="#FFC300"/>
<path d="M509.833 337.024C509.833 337.024 517.355 348.088 527.177 356.003C539.663 366.065 557.239 372.275 557.239 372.275C557.239 372.275 542.302 366.696 527.718 353.329C515.749 342.357 513.431 330.583 513.431 330.583L509.833 337.024Z" fill="#FFC300"/>
<path d="M513.462 330.377L509.746 337.029L509.771 337.066C509.846 337.177 517.411 348.229 527.129 356.06C533.586 361.263 541.42 365.413 546.857 367.979C552.747 370.759 557.237 372.276 557.237 372.276C557.2 372.261 553.467 370.779 547.977 367.75C542.911 364.955 535.292 360.175 527.765 353.276C521.593 347.62 518.042 341.747 516.152 337.817C514.103 333.559 513.506 330.6 513.499 330.57L513.462 330.377ZM509.916 337.022L513.399 330.787C513.564 331.505 514.256 334.213 516.018 337.875C517.915 341.818 521.475 347.709 527.665 353.384C535.204 360.294 542.835 365.081 547.908 367.879C550.187 369.136 552.167 370.115 553.709 370.833C551.919 370.104 549.567 369.098 546.915 367.847C541.486 365.285 533.662 361.14 527.218 355.948C517.801 348.357 510.407 337.734 509.916 337.022Z" fill="#FFC300"/>
<path d="M495.75 412.061C495.75 412.061 508.275 407.358 518.282 399.679C531.004 389.915 541.181 374.298 541.181 374.298C541.181 374.298 532.239 387.5 515.811 398.523C502.327 407.569 490.339 407.046 490.339 407.046L495.75 412.061Z" fill="#FFC300"/>
<path d="M490.139 406.967L495.728 412.147L495.77 412.131C495.895 412.083 508.419 407.336 518.32 399.738C524.898 394.689 530.778 388.053 534.552 383.374C538.642 378.305 541.174 374.3 541.174 374.3C541.151 374.332 538.831 377.61 534.594 382.232C530.684 386.497 524.242 392.774 515.764 398.464C508.813 403.129 502.269 405.195 498.004 406.107C493.382 407.094 490.366 406.977 490.336 406.976L490.139 406.967ZM495.761 411.979L490.523 407.125C491.259 407.133 494.054 407.099 498.028 406.25C502.307 405.336 508.871 403.265 515.845 398.586C524.337 392.888 530.788 386.6 534.703 382.329C536.461 380.411 537.88 378.717 538.941 377.388C537.811 378.955 536.279 381.005 534.438 383.286C530.668 387.959 524.797 394.586 518.232 399.625C508.636 406.987 496.569 411.67 495.761 411.979Z" fill="#FFC300"/>
<path d="M507.761 360.404C507.761 360.404 517.623 366.273 528.13 368.86C541.488 372.148 557.402 370.595 557.402 370.595C557.402 370.595 543.767 371.681 527.58 366.585C514.295 362.401 508.22 354.092 508.22 354.092L507.761 360.404Z" fill="#FFC300"/>
<path d="M508.172 353.919L507.698 360.438L507.731 360.458C507.83 360.516 517.722 366.361 528.117 368.92C535.024 370.62 542.62 371.002 547.777 371.023C553.364 371.045 557.404 370.595 557.404 370.595C557.37 370.597 553.931 370.8 548.565 370.438C543.612 370.105 535.956 369.155 527.601 366.526C520.751 364.369 515.859 361.094 512.963 358.726C509.825 356.159 508.287 354.076 508.271 354.056L508.172 353.919ZM507.828 360.371L508.272 354.261C508.661 354.758 510.182 356.612 512.881 358.819C515.786 361.195 520.691 364.481 527.563 366.645C535.93 369.279 543.599 370.23 548.558 370.564C550.785 370.714 552.68 370.756 554.138 370.754C552.483 370.837 550.289 370.909 547.774 370.899C542.625 370.878 535.039 370.497 528.146 368.801C518.072 366.319 508.468 360.746 507.828 360.371Z" fill="#FFC300"/>
<path d="M551.126 424.89C551.126 424.89 552.233 411.558 549.574 399.228C546.191 383.551 536.43 367.672 536.43 367.672C536.43 367.672 544.537 381.402 547.471 400.966C549.879 417.024 544.278 427.636 544.278 427.636L551.126 424.89Z" fill="#FFC300"/>
<path d="M544.123 427.778L551.195 424.942L551.199 424.897C551.21 424.764 552.277 411.413 549.645 399.213C547.896 391.108 544.413 382.954 541.799 377.541C538.967 371.676 536.43 367.673 536.43 367.673C536.449 367.707 538.42 371.207 540.784 377.014C542.966 382.373 545.885 390.881 547.4 400.978C548.642 409.257 547.711 416.056 546.71 420.301C545.625 424.901 544.229 427.576 544.215 427.604L544.123 427.778ZM551.058 424.84L544.429 427.498C544.752 426.836 545.917 424.295 546.85 420.34C547.854 416.082 548.79 409.262 547.545 400.957C546.028 390.844 543.104 382.323 540.919 376.957C539.938 374.547 539.014 372.54 538.266 371.013C539.199 372.705 540.396 374.966 541.671 377.607C544.281 383.012 547.759 391.155 549.505 399.244C552.055 411.068 551.124 423.978 551.058 424.84Z" fill="#FFC300"/>
<circle cx="567.331" cy="358.049" r="10.4684" transform="rotate(-3.13852 567.331 358.049)" fill="#FFC300"/>
<path d="M328.34 203.338C325.658 213.266 324.713 225.56 325.311 235.935L322.113 236.381C321.898 228.473 322.412 219.673 323.738 211.486C323.791 211.159 323.858 210.811 323.937 210.441C324.017 210.071 324.103 209.696 324.196 209.316C320.215 215.983 316.826 223.549 313.334 231.346C313.004 232.13 312.555 232.552 311.987 232.606L311.478 232.654C310.911 232.708 310.519 232.363 310.314 231.607C308.007 224.044 306.389 215.94 304.885 207.686C304.8 208.64 304.695 209.523 304.57 210.332C303.103 219.808 301.776 236.901 300.458 246.729L297.26 247.174C299.36 233.413 301.277 212.721 303.383 199.783L305.776 200.123C306.066 200.164 306.281 200.241 306.422 200.35C306.564 200.46 306.671 200.726 306.747 201.148C308.172 209.213 309.638 217.076 311.679 224.627C311.773 225.037 311.864 225.463 311.952 225.906C312.041 226.349 312.122 226.799 312.195 227.256C312.355 226.785 312.522 226.32 312.694 225.859C312.866 225.399 313.048 224.961 313.239 224.545C316.797 216.932 320.383 209.638 324.648 203.556C324.863 203.237 325.061 203.057 325.241 203.008C325.421 202.959 325.656 202.956 325.946 202.997L328.34 203.338Z" fill="white"/>
<path d="M296.373 248.045L296.523 247.061C297.522 240.524 298.496 232.28 299.435 224.308C300.471 215.533 301.541 206.458 302.647 199.663L302.764 198.945L305.877 199.391C306.301 199.454 306.627 199.574 306.875 199.766C307.177 200.003 307.361 200.389 307.474 201.021C308.819 208.638 310.306 216.719 312.391 224.435L312.398 224.463L312.419 224.554C312.466 224.447 312.514 224.341 312.561 224.236C315.776 217.359 319.578 209.489 324.036 203.13C324.348 202.669 324.679 202.393 325.041 202.293C325.323 202.216 325.652 202.206 326.047 202.263L329.271 202.722L329.052 203.532C326.537 212.844 325.414 224.942 326.049 235.892L326.088 236.576L321.391 237.228L321.368 236.401C321.164 228.877 321.628 220.821 322.681 213.477C319.621 219.116 316.879 225.239 314.008 231.653C313.462 232.948 312.643 233.291 312.055 233.347L311.546 233.395C311.1 233.437 310.025 233.368 309.598 231.816C307.701 225.588 306.255 218.924 305.009 212.423C304.298 217.528 303.618 224.246 302.957 230.769C302.348 236.784 301.773 242.465 301.188 246.828L301.113 247.387L296.373 248.045ZM303.996 200.622C302.935 207.304 301.905 216.032 300.908 224.486C300.013 232.073 299.09 239.909 298.136 246.302L299.79 246.072C300.347 241.809 300.898 236.368 301.48 230.62C302.232 223.196 303.007 215.519 303.835 210.218C303.957 209.432 304.061 208.557 304.143 207.62L304.628 202.147L305.612 207.556C307.044 215.424 308.69 223.758 311.021 231.394L311.028 231.416C311.171 231.942 311.324 231.925 311.406 231.92L311.915 231.872C312.187 231.845 312.434 231.574 312.65 231.063C316.201 223.132 319.549 215.654 323.557 208.938L326.067 204.734L324.915 209.493C324.827 209.859 324.741 210.231 324.661 210.601C324.584 210.952 324.52 211.29 324.47 211.607C323.249 219.148 322.671 227.611 322.834 235.535L324.533 235.299C323.988 224.691 325.055 213.1 327.409 203.955L325.841 203.732C325.719 203.71 325.594 203.705 325.471 203.717C325.39 203.792 325.319 203.878 325.261 203.971C320.863 210.244 317.096 218.041 313.909 224.859C313.728 225.252 313.553 225.678 313.387 226.119C313.217 226.573 313.052 227.036 312.895 227.496L311.933 230.32L311.462 227.373C311.39 226.928 311.311 226.482 311.224 226.051C311.138 225.619 311.048 225.199 310.959 224.806C308.859 217.036 307.366 208.922 306.016 201.278C305.997 201.154 305.966 201.033 305.924 200.916C305.841 200.888 305.756 200.868 305.669 200.858L303.996 200.622Z" fill="white"/>
<path d="M347.225 223.454C346.985 224.011 346.648 224.52 346.23 224.96C345.784 225.431 345.283 225.849 344.739 226.202C344.163 226.58 343.555 226.905 342.922 227.176C342.277 227.454 341.611 227.68 340.929 227.851C339.635 228.175 338.372 228.264 337.167 228.077C335.973 227.903 334.846 227.416 333.901 226.666C332.939 225.902 332.137 224.827 331.516 223.435C330.896 222.043 330.503 220.344 330.359 218.364C330.24 216.832 330.351 215.292 330.687 213.793C331.015 212.36 331.535 211.11 332.226 210.055C332.877 209.043 333.747 208.191 334.772 207.562C335.774 206.953 336.89 206.633 338.112 206.573C339.063 206.517 340.015 206.683 340.89 207.06C341.738 207.435 342.488 208.002 343.082 208.714C343.707 209.447 344.215 210.364 344.638 211.466C345.06 212.568 345.357 213.836 345.557 215.262C345.635 215.817 345.644 216.192 345.572 216.39C345.499 216.587 345.317 216.708 345.034 216.748L333.418 218.407C333.585 219.813 333.888 220.999 334.309 221.962C334.729 222.925 335.257 223.681 335.88 224.23C336.472 224.761 337.195 225.125 337.974 225.285C338.742 225.445 339.565 225.421 340.431 225.233C341.237 225.057 341.904 224.81 342.432 224.493C342.729 224.315 342.999 224.138 343.241 223.963C343.425 223.828 346.792 223.148 347.225 223.454ZM342.735 214.78C342.658 213.997 342.491 213.226 342.238 212.482C342.027 211.846 341.709 211.251 341.299 210.721C340.932 210.251 340.458 209.875 339.916 209.624C339.381 209.379 338.775 209.279 338.096 209.328C336.671 209.431 335.533 210.043 334.711 211.205C333.889 212.367 333.404 213.955 333.329 215.936L342.735 214.78Z" fill="white"/>
<path d="M338.438 228.918C337.974 228.918 337.51 228.883 337.05 228.813C335.73 228.617 334.485 228.077 333.44 227.247C332.374 226.401 331.499 225.22 330.839 223.737C330.178 222.255 329.768 220.468 329.619 218.419C329.494 216.814 329.61 215.2 329.961 213.629C330.305 212.127 330.857 210.788 331.604 209.649C332.316 208.546 333.266 207.616 334.386 206.929C335.474 206.268 336.716 205.899 338.077 205.834C339.142 205.772 340.207 205.96 341.187 206.381C342.138 206.803 342.979 207.436 343.647 208.232C344.313 209.013 344.864 209.984 345.33 211.199C345.761 212.321 346.076 213.617 346.292 215.159C346.395 215.889 346.388 216.32 346.268 216.645C346.17 216.91 345.894 217.373 345.139 217.481L334.252 219.038C334.416 220.045 334.662 220.927 334.985 221.667C335.355 222.516 335.82 223.194 336.368 223.674C336.863 224.119 337.467 224.425 338.118 224.56C338.769 224.695 339.492 224.678 340.267 224.509C340.988 224.352 341.586 224.132 342.045 223.858C342.323 223.691 342.577 223.525 342.801 223.363C343.1 223.147 344.318 222.924 345.018 222.811C346.957 222.497 347.383 222.658 347.653 222.852L348.138 223.198L347.904 223.746C347.629 224.382 347.244 224.965 346.768 225.468C346.282 225.982 345.736 226.438 345.143 226.825C344.531 227.225 343.885 227.571 343.212 227.858C342.53 228.152 341.826 228.39 341.106 228.571C340.234 228.795 339.338 228.911 338.438 228.918ZM338.457 207.307C338.355 207.307 338.252 207.307 338.147 207.315C337.037 207.368 336.031 207.665 335.156 208.197C334.225 208.769 333.435 209.543 332.843 210.462C332.194 211.453 331.711 212.629 331.407 213.962C331.088 215.389 330.984 216.855 331.098 218.312C331.236 220.19 331.607 221.812 332.194 223.135C332.757 224.398 333.486 225.391 334.363 226.088C335.207 226.757 336.212 227.192 337.278 227.349C338.349 227.515 339.517 227.444 340.747 227.136C341.39 226.975 342.018 226.762 342.626 226.5C343.219 226.246 343.789 225.941 344.329 225.588C344.824 225.265 345.28 224.885 345.686 224.456C345.771 224.365 345.851 224.273 345.927 224.179C345.069 224.287 343.958 224.502 343.598 224.619C343.358 224.789 343.093 224.962 342.807 225.132C342.211 225.49 341.462 225.769 340.58 225.96C339.6 226.173 338.671 226.192 337.815 226.014C336.91 225.828 336.07 225.405 335.382 224.788C334.672 224.161 334.08 223.31 333.622 222.262C333.165 221.213 332.848 219.952 332.675 218.497L332.589 217.778L344.88 216.021C344.876 215.802 344.856 215.584 344.822 215.367C344.621 213.937 344.334 212.748 343.944 211.732C343.54 210.676 343.072 209.848 342.518 209.194C342.025 208.596 341.404 208.116 340.702 207.79C339.999 207.463 339.232 207.298 338.457 207.307ZM332.546 216.78L332.581 215.908C332.665 213.814 333.177 212.09 334.102 210.778C335.044 209.446 336.369 208.71 338.039 208.589C338.836 208.531 339.57 208.653 340.221 208.951C340.868 209.25 341.435 209.698 341.876 210.259C342.337 210.854 342.695 211.523 342.935 212.237C343.206 213.035 343.385 213.862 343.468 214.701L343.547 215.428L332.546 216.78ZM338.427 210.058C338.335 210.058 338.242 210.062 338.146 210.069C336.922 210.156 335.996 210.669 335.313 211.634C334.682 212.525 334.285 213.686 334.129 215.091L341.893 214.136C341.813 213.658 341.693 213.187 341.535 212.728C341.317 212.108 341.049 211.603 340.715 211.185C340.421 210.805 340.04 210.501 339.604 210.299C339.234 210.134 338.832 210.052 338.427 210.058Z" fill="white"/>
<path d="M362.268 204.303C362.191 209.491 364.021 215.376 367.359 218.841C367.553 219.043 366.668 219.788 366.022 219.97C365.559 220.1 365.131 220.056 364.762 219.809C364.302 219.416 363.867 218.995 363.458 218.549C363.112 219.382 362.579 220.124 361.901 220.718C361.197 221.346 360.195 221.852 358.899 222.223C357.884 222.513 356.901 222.657 355.966 222.626C355.031 222.595 354.165 222.408 353.382 222.043C352.581 221.669 351.879 221.11 351.334 220.414C350.757 219.689 350.304 218.81 349.988 217.779C348.801 213.913 348.186 209.57 348.246 205.493L351.207 205.239C351.148 209.195 351.806 213.427 353.072 217.148C353.524 218.474 354.25 219.368 355.187 219.868C356.125 220.368 357.264 220.418 358.553 220.091C359.497 219.852 360.268 219.459 360.867 218.913C361.47 218.361 361.942 217.682 362.25 216.925C360.287 213.329 359.245 208.735 359.307 204.55L362.268 204.303Z" fill="white"/>
<path d="M356.212 223.373C356.12 223.373 356.028 223.373 355.938 223.368C354.882 223.333 353.916 223.114 353.065 222.716C352.162 222.292 351.37 221.663 350.753 220.878C350.117 220.076 349.619 219.107 349.278 217.999C348.069 214.073 347.442 209.628 347.504 205.484L347.514 204.813L351.96 204.435L351.947 205.254C351.89 209.144 352.538 213.285 353.773 216.914C354.151 218.02 354.743 218.796 355.535 219.218C356.275 219.613 357.229 219.667 358.37 219.378C359.188 219.17 359.86 218.83 360.367 218.369C360.806 217.969 361.164 217.49 361.423 216.956C359.54 213.357 358.501 208.857 358.564 204.547L358.575 203.875L363.02 203.498L363.008 204.317C362.931 209.587 364.893 215.218 367.89 218.33C367.993 218.438 368.065 218.571 368.101 218.716C368.136 218.861 368.133 219.013 368.092 219.157C367.913 219.819 366.863 220.505 366.22 220.684C365.539 220.875 364.893 220.788 364.35 220.43L364.277 220.375C364.063 220.193 363.851 220.001 363.64 219.802C363.295 220.349 362.874 220.844 362.389 221.273C361.601 221.977 360.493 222.537 359.097 222.939C358.16 223.216 357.189 223.362 356.212 223.373ZM348.986 206.177C348.999 209.975 349.601 213.993 350.698 217.563C350.984 218.494 351.393 219.298 351.916 219.954C352.39 220.559 352.999 221.043 353.695 221.369C354.364 221.683 355.135 221.855 355.986 221.884C356.813 221.911 357.725 221.785 358.69 221.509C359.87 221.17 360.782 220.717 361.403 220.163C361.998 219.643 362.465 218.993 362.769 218.264L363.214 217.19L364.004 218.048C364.381 218.459 364.782 218.848 365.204 219.213C365.326 219.285 365.507 219.345 365.821 219.257C366.041 219.182 366.246 219.07 366.429 218.926C363.51 215.621 361.64 210.34 361.529 205.111L360.048 205.238C360.105 209.183 361.154 213.374 362.901 216.576L363.073 216.889L362.934 217.218C362.586 218.075 362.05 218.844 361.366 219.467C360.677 220.094 359.793 220.549 358.737 220.816C357.225 221.198 355.915 221.102 354.838 220.528C353.703 219.922 352.873 218.868 352.371 217.393C351.168 213.861 350.499 209.866 350.461 206.052L348.986 206.177Z" fill="white"/>
<path d="M382.764 204.418C380.272 207.913 379.624 212.563 380.446 215.708C380.593 216.273 380.573 217.305 380.347 217.337L378.018 217.66C371.468 215.084 367.823 208.896 366.328 203.555L368.746 203.682C368.991 203.696 369.182 203.761 369.319 203.879C369.449 203.983 369.543 204.126 369.584 204.287C370.621 207.645 372.604 211.273 375.726 214.003C376.049 214.314 376.362 214.607 376.669 214.881C376.975 215.155 377.284 215.419 377.602 215.669C377.477 215.396 377.37 215.115 377.28 214.828C377.186 214.527 377.123 214.218 377.093 213.904C376.987 211.025 377.736 207.577 379.498 204.74C379.588 204.594 379.719 204.478 379.875 204.406C380.053 204.32 380.25 204.283 380.447 204.298L382.764 204.418Z" fill="white"/>
<path d="M377.929 218.423L377.749 218.352C369.578 215.139 366.541 207.074 365.615 203.756L365.338 202.762L368.786 202.943C369.193 202.964 369.535 203.089 369.804 203.314C370.048 203.513 370.223 203.784 370.305 204.087C371.45 207.789 373.55 211.112 376.223 213.446L376.249 213.469L376.352 213.569C376.312 210.399 377.243 206.979 378.877 204.349C379.039 204.085 379.274 203.874 379.554 203.742C379.846 203.6 380.169 203.536 380.493 203.557L384.159 203.748L383.375 204.848C380.866 208.37 380.473 212.85 381.171 215.521C381.271 215.903 381.426 217.125 381.048 217.691C380.983 217.793 380.896 217.881 380.794 217.946C380.692 218.012 380.577 218.055 380.457 218.073L377.929 218.423ZM377.836 213.854C377.863 214.11 377.914 214.362 377.99 214.608C378.071 214.865 378.168 215.117 378.279 215.362L378.932 216.789L379.798 216.669C379.808 216.411 379.786 216.153 379.73 215.9C378.995 213.09 379.289 208.804 381.448 205.096L380.408 205.041C380.339 205.034 380.27 205.045 380.207 205.073C380.181 205.083 380.157 205.099 380.139 205.12C378.589 207.615 377.732 210.874 377.836 213.854ZM367.346 204.353C368.462 207.766 371.314 213.973 377.799 216.769L377.146 216.253C376.823 215.998 376.497 215.722 376.175 215.433C375.854 215.144 375.531 214.843 375.227 214.551C372.357 212.036 370.103 208.47 368.879 204.507L368.869 204.469C368.869 204.469 368.86 204.46 368.844 204.446C368.8 204.431 368.754 204.423 368.708 204.424L367.346 204.353Z" fill="white"/>
<path d="M393.368 214.597C392.504 214.567 391.643 214.477 390.792 214.327C390.533 214.28 390.279 214.226 390.028 214.166C388.956 213.908 387.964 213.522 387.095 212.982C386.022 212.318 385.189 211.421 384.685 210.309C384.277 209.412 384.201 208.527 384.402 207.716C384.604 206.906 385.071 206.215 385.739 205.667C386.406 205.119 387.274 204.727 388.284 204.478C389.294 204.229 390.427 204.155 391.648 204.223C392.583 204.268 393.51 204.425 394.407 204.69C395.185 204.919 395.925 205.261 396.604 205.705C397.248 206.13 397.801 206.646 398.332 207.254C398.863 207.863 399.332 208.549 399.813 209.282C400 209.568 400.093 209.753 400.06 209.848C400.028 209.944 399.869 209.997 399.581 210.007L387.853 210.458C388.295 211.205 388.905 211.838 389.635 212.308C390.374 212.779 391.186 213.124 392.038 213.33C392.917 213.546 393.818 213.667 394.723 213.693C395.624 213.721 396.525 213.684 397.421 213.582C397.8 213.539 398.139 213.494 398.439 213.444C398.737 213.398 399.032 213.336 399.323 213.26C399.774 213.138 393.928 214.619 393.368 214.597ZM396.821 208.913C396.594 208.468 396.319 208.048 396.002 207.661C395.684 207.275 395.312 206.935 394.899 206.654C394.454 206.354 393.966 206.123 393.453 205.97C392.856 205.792 392.238 205.695 391.615 205.683C390.189 205.637 389.052 205.889 388.282 206.491C387.513 207.092 387.137 207.977 387.342 209.09L396.821 208.913Z" fill="white"/>
<path d="M393.368 215.337H393.338C392.439 215.306 391.544 215.212 390.658 215.055C390.384 215.006 390.112 214.948 389.852 214.886C388.662 214.599 387.601 214.17 386.701 213.613C385.471 212.85 384.564 211.844 384.007 210.622C383.545 209.604 383.434 208.54 383.68 207.543C383.917 206.588 384.452 205.767 385.271 205.099C386.008 204.495 386.964 204.046 388.112 203.763C389.158 203.508 390.363 203.413 391.694 203.487C392.688 203.536 393.673 203.703 394.628 203.985C395.474 204.234 396.279 204.607 397.018 205.09C397.676 205.524 398.273 206.058 398.896 206.77C399.477 207.435 399.978 208.177 400.438 208.88C400.692 209.27 400.914 209.657 400.769 210.089C400.631 210.504 400.242 210.729 399.615 210.753L389.349 211.147C389.565 211.348 389.798 211.53 390.045 211.691C390.715 212.117 391.452 212.429 392.224 212.615C393.053 212.818 393.901 212.932 394.754 212.955C395.618 212.982 396.484 212.946 397.344 212.848C397.708 212.808 398.037 212.764 398.323 212.717C398.485 212.69 398.635 212.663 398.772 212.634L399.039 212.57C399.07 212.563 399.103 212.556 399.13 212.551C399.841 212.424 400.029 212.913 400.07 213.072C400.095 213.168 400.101 213.268 400.087 213.365C400.072 213.463 400.039 213.557 399.988 213.642C399.937 213.727 399.87 213.8 399.79 213.859C399.71 213.917 399.619 213.958 399.523 213.981C399.396 214.016 399.255 214.05 399.101 214.082L399.013 214.104C394.862 215.117 393.737 215.337 393.368 215.337ZM390.823 204.941C390.029 204.932 389.237 205.017 388.464 205.196C387.532 205.425 386.773 205.776 386.208 206.238C385.643 206.701 385.278 207.256 385.119 207.893C384.95 208.571 385.03 209.28 385.357 209.999C385.791 210.954 386.503 211.741 387.482 212.346C388.226 212.808 389.108 213.168 390.106 213.417C389.804 213.273 389.512 213.108 389.231 212.925C388.405 212.393 387.715 211.675 387.216 210.829L386.589 209.764L386.708 209.76L386.61 209.222C386.367 207.886 386.798 206.709 387.823 205.906C388.576 205.317 389.616 204.994 390.921 204.942L390.823 204.941ZM393.647 205.253L393.67 205.26C394.254 205.435 394.809 205.698 395.314 206.039C395.785 206.359 396.208 206.745 396.57 207.185C396.922 207.612 397.226 208.077 397.478 208.571L397.872 209.331L398.931 209.29C398.58 208.75 398.195 208.233 397.777 207.743C397.244 207.133 396.742 206.682 396.198 206.324C395.579 205.919 394.904 205.608 394.195 205.4C394.017 205.346 393.834 205.297 393.647 205.253ZM391.292 206.418C390.153 206.418 389.293 206.638 388.736 207.074C388.312 207.406 388.077 207.828 388.036 208.335L395.482 208.196L395.431 208.132C395.157 207.8 394.836 207.508 394.48 207.266C394.096 207.008 393.675 206.809 393.231 206.677C392.698 206.52 392.146 206.434 391.589 206.422C391.489 206.419 391.391 206.418 391.294 206.418H391.292Z" fill="white"/>
<path d="M287.205 250.513C287.205 250.513 315.509 231.375 346.293 221.88C385.43 209.81 432.998 211.692 432.998 211.692C432.998 211.692 392.285 210.808 345.05 228.735C306.281 243.453 289.653 269.196 289.653 269.196L287.205 250.513Z" fill="#FFC300"/>
<path d="M289.528 269.715L287 250.419L287.095 250.355C287.378 250.164 315.774 231.093 346.232 221.7C366.469 215.46 388.98 213.02 404.303 212.072C420.905 211.045 432.991 211.69 432.991 211.69C432.89 211.69 422.633 211.678 406.745 213.674C392.083 215.515 369.489 219.656 345.108 228.906C325.119 236.492 311.144 247.069 302.943 254.605C294.056 262.772 289.844 269.227 289.8 269.291L289.528 269.715ZM287.398 250.598L289.767 268.682C290.838 267.136 295.039 261.364 302.681 254.342C310.908 246.781 324.923 236.169 344.974 228.557C369.392 219.29 392.021 215.146 406.703 213.302C413.297 212.475 418.921 212.023 423.257 211.779C418.323 211.816 411.79 211.978 404.317 212.441C389.015 213.387 366.534 215.824 346.337 222.05C316.821 231.158 289.234 249.372 287.398 250.598Z" fill="#FFC300"/>
<path d="M400.425 196.2H399.832V197.845H399.59V196.2H398.998V196H400.425V196.2Z" fill="white"/>
<path d="M401.013 196L401.617 197.506L402.22 196H402.536V197.845H402.292V197.127L402.315 196.351L401.709 197.845H401.523L400.918 196.355L400.942 197.127V197.845H400.699V196H401.013Z" fill="white"/>
</svg>
