<svg width="43" height="43" viewBox="0 0 43 43" fill="none" xmlns="http://www.w3.org/2000/svg">
<circle r="20.3315" transform="matrix(0 -1 -1 0 21.0318 21.0318)" stroke="#000814" stroke-width="1.40218"/>
<path fill-rule="evenodd" clip-rule="evenodd" d="M30.3817 21.5021C30.3817 21.688 30.3078 21.8663 30.1764 21.9978C30.0449 22.1293 29.8666 22.2032 29.6806 22.2032L13.1448 22.2032L17.5574 26.6144C17.6891 26.7461 17.763 26.9246 17.763 27.1108C17.763 27.297 17.6891 27.4755 17.5574 27.6072C17.4258 27.7388 17.2472 27.8128 17.061 27.8128C16.8749 27.8128 16.6963 27.7388 16.5647 27.6072L10.956 21.9985C10.8907 21.9333 10.8389 21.856 10.8035 21.7708C10.7682 21.6856 10.75 21.5943 10.75 21.5021C10.75 21.4099 10.7682 21.3186 10.8035 21.2334C10.8389 21.1482 10.8907 21.0708 10.956 21.0057L16.5647 15.397C16.6299 15.3318 16.7072 15.2801 16.7924 15.2448C16.8776 15.2096 16.9689 15.1914 17.061 15.1914C17.2472 15.1914 17.4258 15.2654 17.5574 15.397C17.6891 15.5287 17.763 15.7072 17.763 15.8934C17.763 16.0796 17.6891 16.2581 17.5574 16.3897L13.1448 20.801L29.6806 20.801C29.8666 20.801 30.0449 20.8749 30.1764 21.0063C30.3078 21.1378 30.3817 21.3161 30.3817 21.5021Z" fill="#000814"/>
</svg>
