<svg width="107" height="54" viewBox="0 0 107 54" fill="none" xmlns="http://www.w3.org/2000/svg">
<path d="M30.0135 5.32908C28.0664 12.5371 27.3798 21.464 27.8146 28.9969L25.4923 29.3203C25.3362 23.5788 25.7095 17.1891 26.6724 11.2448C26.7109 11.0079 26.7591 10.7551 26.8171 10.4865C26.875 10.2179 26.9375 9.94547 27.0046 9.66916C24.1145 14.5101 21.6536 20.0039 19.1183 25.665C18.879 26.2343 18.5523 26.5402 18.1406 26.5794L17.7709 26.6145C17.3588 26.6538 17.0746 26.4029 16.9254 25.854C15.2504 20.363 14.0754 14.4791 12.9836 8.48584C12.922 9.17892 12.8458 9.81948 12.7549 10.4075C11.6898 17.2875 10.7265 29.6978 9.76955 36.8338L7.44727 37.1572C8.97205 27.1658 10.3638 12.1421 11.8932 2.74805L13.6305 2.99478C13.8412 3.02482 13.9974 3.08026 14.0999 3.15974C14.2025 3.23921 14.2806 3.43281 14.3356 3.73915C15.3701 9.59477 16.4347 15.3039 17.9165 20.7862C17.9849 21.0838 18.0511 21.3933 18.1152 21.7149C18.1793 22.0365 18.2379 22.3633 18.2912 22.6954C18.4077 22.3535 18.5284 22.0154 18.6535 21.6812C18.7785 21.347 18.9104 21.0288 19.049 20.7266C21.6323 15.199 24.2365 9.90296 27.3327 5.48711C27.4889 5.25608 27.633 5.12532 27.7638 5.08974C27.8946 5.05416 28.0646 5.05139 28.2758 5.08142L30.0135 5.32908Z" fill="#000814"/>
<path d="M6.80273 37.7919L6.91178 37.0781C7.63674 32.3314 8.34415 26.3459 9.02614 20.5578C9.7779 14.186 10.5551 7.59759 11.3581 2.66378L11.4431 2.14258L13.7035 2.46602C14.0108 2.51222 14.2478 2.59909 14.4276 2.73863C14.647 2.91051 14.781 3.19098 14.8628 3.64934C15.8391 9.18013 16.919 15.0478 18.4331 20.6502L18.4382 20.67L18.4534 20.7361C18.4872 20.6585 18.5218 20.5818 18.5565 20.5051C20.8908 15.5121 23.6511 9.79836 26.8882 5.18105C27.1147 4.84652 27.3549 4.64553 27.6174 4.57345C27.8225 4.51754 28.0609 4.51014 28.3479 4.55127L30.6886 4.88487L30.5302 5.4726C28.7037 12.2343 27.8881 21.018 28.3493 28.9685L28.3779 29.4648L24.9675 29.9384L24.9508 29.3377C24.8025 23.8753 25.1394 18.0262 25.9041 12.6936C23.6825 16.7879 21.6915 21.2337 19.6067 25.8903C19.2103 26.8311 18.6161 27.0797 18.1887 27.1203L17.819 27.1554C17.4956 27.1859 16.7152 27.1356 16.4047 26.0086C15.0273 21.4869 13.9775 16.6483 13.0728 11.9284C12.5567 15.6346 12.0628 20.5129 11.5831 25.249C11.141 29.6159 10.7233 33.7406 10.2986 36.9085L10.2441 37.3142L6.80273 37.7919ZM12.3372 3.36009C11.5674 8.21166 10.8194 14.5487 10.0953 20.6871C9.44522 26.1953 8.77571 31.885 8.08263 36.5268L9.28397 36.36C9.68826 33.2643 10.0884 29.3142 10.5107 25.1409C11.0564 19.7501 11.6197 14.1759 12.2203 10.3274C12.309 9.75631 12.3844 9.12145 12.4444 8.44084L12.796 4.46717L13.5108 8.39464C14.5505 14.1075 15.7453 20.1581 17.4383 25.7027L17.4429 25.7184C17.5469 26.1006 17.6582 26.0881 17.7178 26.0844L18.0875 26.0493C18.2848 26.0303 18.4641 25.833 18.6207 25.462C21.199 19.7034 23.6298 14.2743 26.5403 9.39822L28.3622 6.34589L27.5263 9.80067C27.4621 10.0663 27.3997 10.3371 27.3415 10.6056C27.2861 10.8602 27.2394 11.106 27.2029 11.3361C26.3162 16.8114 25.8971 22.9558 26.0154 28.7093L27.2491 28.5379C26.8531 20.8359 27.6275 12.4201 29.3371 5.77987L28.1982 5.61769C28.1096 5.60178 28.0193 5.5982 27.9297 5.60706C27.871 5.66174 27.8198 5.72388 27.7772 5.79188C24.5844 10.3459 21.8491 16.0074 19.5351 20.9574C19.4039 21.243 19.2764 21.5521 19.1562 21.8728C19.0329 22.2022 18.9127 22.5386 18.7991 22.8722L18.1 24.9228L17.758 22.783C17.7063 22.4596 17.6485 22.1361 17.5857 21.8229C17.5229 21.5096 17.4577 21.2042 17.393 20.9195C15.8682 15.2774 14.7843 9.38667 13.8042 3.83601C13.7905 3.74655 13.7681 3.65866 13.7372 3.57356C13.6773 3.55279 13.6154 3.53853 13.5524 3.53105L12.3372 3.36009Z" fill="#000814"/>
<path d="M43.725 19.9421C43.5505 20.3462 43.3058 20.7163 43.0024 21.0353C42.6785 21.3778 42.3151 21.6807 41.9198 21.9377C41.5017 22.2116 41.0602 22.4481 40.6006 22.6446C40.1324 22.8467 39.6486 23.0107 39.1539 23.1349C38.2141 23.3696 37.2969 23.4343 36.4223 23.2984C35.5553 23.1723 34.7371 22.8189 34.051 22.2741C33.3524 21.7196 32.7697 20.9387 32.3192 19.9282C31.8687 18.9177 31.5836 17.684 31.4788 16.2461C31.3927 15.1342 31.473 14.0158 31.7172 12.9276C31.9551 11.8871 32.3326 10.9796 32.8349 10.2135C33.3071 9.47902 33.9389 8.8604 34.6831 8.40365C35.4104 7.96146 36.2208 7.72859 37.1084 7.68562C37.799 7.64439 38.4897 7.76528 39.1253 8.03863C39.7411 8.31152 40.2858 8.72259 40.7171 9.23997C41.1708 9.77226 41.5395 10.4376 41.8463 11.2379C42.1531 12.0382 42.3689 12.9586 42.514 13.9945C42.5708 14.3974 42.5773 14.6691 42.5246 14.8128C42.472 14.9565 42.3398 15.0438 42.1342 15.0729L33.6998 16.2775C33.8214 17.2982 34.0413 18.1599 34.3467 18.859C34.6521 19.5581 35.0356 20.1066 35.4875 20.5053C35.9175 20.8912 36.4423 21.1557 37.0082 21.2719C37.5654 21.3874 38.1633 21.3703 38.7921 21.2335C39.3774 21.1057 39.8617 20.9267 40.2448 20.6966C40.4605 20.5672 40.6564 20.4389 40.8326 20.3117C40.9657 20.2138 43.4104 19.7198 43.725 19.9421ZM40.4648 13.6443C40.4087 13.076 40.2878 12.5161 40.1044 11.9753C39.9505 11.5139 39.7198 11.0818 39.4219 10.6973C39.1556 10.3556 38.8116 10.0825 38.4183 9.90071C38.0298 9.72282 37.5899 9.64981 37.0964 9.68539C36.0619 9.76024 35.2357 10.2047 34.6387 11.0484C34.0418 11.8922 33.6901 13.045 33.6352 14.4838L40.4648 13.6443Z" fill="#000814"/>
<path d="M37.347 23.9055C37.0096 23.906 36.6727 23.8805 36.3392 23.8292C35.3806 23.6874 34.4763 23.2953 33.7175 22.6926C32.9441 22.078 32.3087 21.2205 31.8291 20.1444C31.3495 19.0682 31.0519 17.7703 30.9434 16.2825C30.8531 15.1174 30.9369 13.9454 31.1919 12.8051C31.4415 11.7142 31.8425 10.742 32.3845 9.91539C32.9015 9.11416 33.5919 8.43928 34.4046 7.94057C35.1947 7.46049 36.0962 7.1925 37.0845 7.14491C37.858 7.10056 38.6313 7.23676 39.343 7.54274C40.0331 7.84844 40.644 8.30807 41.1289 8.88639C41.6127 9.45333 42.0123 10.1584 42.351 11.0405C42.6638 11.8551 42.8921 12.7963 43.0492 13.9159C43.124 14.4458 43.119 14.7586 43.0316 14.9948C42.9609 15.1874 42.7604 15.5233 42.2124 15.6019L34.3071 16.7321C34.4268 17.4635 34.6051 18.1039 34.8394 18.6408C35.1083 19.2572 35.4461 19.7498 35.8434 20.0986C36.2029 20.4216 36.6415 20.6435 37.1146 20.7418C37.5872 20.8397 38.1121 20.8273 38.6745 20.7044C39.1984 20.5902 39.6328 20.4308 39.9654 20.2317C40.1674 20.1106 40.3517 19.99 40.5144 19.8727C40.7315 19.7156 41.6159 19.5538 42.1242 19.4716C43.532 19.2433 43.8416 19.3607 44.0375 19.5012L44.3896 19.7525L44.2196 20.1508C44.0199 20.6125 43.7408 21.0355 43.3948 21.4007C43.0417 21.7744 42.6457 22.1052 42.2152 22.3862C41.7705 22.6766 41.3013 22.9276 40.8128 23.1362C40.3179 23.3494 39.8066 23.5226 39.2839 23.6541C38.6509 23.8165 38.0005 23.9009 37.347 23.9055ZM37.3608 8.21503C37.2864 8.21503 37.2116 8.21503 37.1354 8.22057C36.3295 8.25939 35.599 8.4747 34.9637 8.86098C34.2879 9.27642 33.714 9.83841 33.2846 10.5054C32.8133 11.2249 32.4621 12.0792 32.2417 13.0467C32.0104 14.0826 31.9348 15.1472 32.0176 16.2053C32.1174 17.5684 32.3873 18.7466 32.8133 19.7072C33.2217 20.624 33.7513 21.3452 34.388 21.8507C35.0006 22.3368 35.7305 22.6527 36.5042 22.7665C37.2823 22.8871 38.1302 22.8354 39.0233 22.6122C39.4898 22.495 39.9461 22.3405 40.3878 22.1501C40.8183 21.9659 41.2319 21.7444 41.6238 21.488C41.9834 21.2536 42.3142 20.9777 42.6093 20.666C42.6709 20.6001 42.7293 20.5331 42.7844 20.465C42.1611 20.5431 41.3548 20.6997 41.0933 20.7843C40.9191 20.9081 40.7264 21.0333 40.519 21.1572C40.086 21.4169 39.5427 21.6192 38.9018 21.7578C38.1907 21.9126 37.5156 21.9265 36.8942 21.7976C36.2371 21.662 35.6276 21.3548 35.1277 20.9072C34.6121 20.4516 34.1824 19.8343 33.8501 19.0728C33.5179 18.3114 33.2883 17.3961 33.1621 16.3398L33.1002 15.8177L42.0239 14.5419C42.0209 14.3828 42.0069 14.2241 41.9818 14.0669C41.8363 13.0287 41.6279 12.1651 41.3447 11.4277C41.0508 10.6607 40.7117 10.06 40.3087 9.58502C39.9511 9.15078 39.5006 8.80229 38.9904 8.56519C38.4802 8.3281 37.9234 8.20844 37.3608 8.21503ZM33.0688 15.0927L33.0942 14.4597C33.1552 12.9391 33.5267 11.6874 34.1985 10.7351C34.8824 9.76799 35.8444 9.2334 37.0573 9.14561C37.6358 9.10356 38.169 9.19181 38.6416 9.40805C39.1114 9.62549 39.5231 9.95103 39.843 10.358C40.1778 10.7904 40.4377 11.2758 40.6119 11.7941C40.8085 12.3738 40.9384 12.974 40.9991 13.5832L41.0563 14.1113L33.0688 15.0927ZM37.3387 10.212C37.2721 10.212 37.2047 10.2148 37.1349 10.2199C36.2464 10.2836 35.5736 10.6556 35.0778 11.3565C34.6199 12.0034 34.3316 12.8467 34.2179 13.8664L39.855 13.1733C39.7969 12.8259 39.71 12.4839 39.5953 12.1508C39.4368 11.7003 39.2423 11.3339 39.0002 11.0303C38.7865 10.7546 38.5099 10.5341 38.1935 10.3871C37.9246 10.2676 37.6329 10.2078 37.3387 10.212Z" fill="#000814"/>
<path d="M54.6463 6.0332C54.5908 9.80033 55.9192 14.073 58.3427 16.5888C58.4841 16.7358 57.8409 17.2764 57.3724 17.4085C57.036 17.5032 56.7255 17.4709 56.4571 17.2921C56.1237 17.0063 55.8077 16.7008 55.5108 16.3772C55.2594 16.9816 54.8726 17.5202 54.3801 17.9514C53.8691 18.4079 53.1414 18.7748 52.2002 19.0447C51.4637 19.2554 50.7498 19.3598 50.071 19.3371C49.3923 19.3145 48.7629 19.1791 48.1951 18.9139C47.6132 18.642 47.1037 18.2367 46.7077 17.731C46.2887 17.2048 45.9601 16.5662 45.7305 15.8181C44.8683 13.0112 44.4219 9.85763 44.4658 6.89771L46.6153 6.71288C46.5728 9.58548 47.0501 12.6581 47.9696 15.3598C48.2977 16.3222 48.8249 16.9714 49.5055 17.3346C50.1861 17.6978 51.0136 17.7343 51.9493 17.4968C52.6347 17.3227 53.1947 17.0375 53.6293 16.6411C54.0671 16.2404 54.4102 15.7473 54.6338 15.1976C53.2084 12.587 52.4515 9.25141 52.4964 6.21294L54.6463 6.0332Z" fill="#000814"/>
<path d="M50.2516 19.8777C50.1846 19.8777 50.118 19.8777 50.0524 19.8745C49.2859 19.849 48.5845 19.6896 47.9667 19.4009C47.3104 19.0931 46.7354 18.6359 46.2876 18.066C45.8255 17.4838 45.4642 16.7805 45.217 15.9756C44.3391 13.1252 43.884 9.89824 43.9288 6.88934L43.9362 6.40187L47.1641 6.12787L47.1549 6.72254C47.1133 9.54661 47.5837 12.5532 48.4805 15.1878C48.7545 15.9914 49.1847 16.5546 49.7599 16.8609C50.2973 17.1479 50.9899 17.1867 51.8184 16.9769C52.4121 16.8258 52.9001 16.5795 53.2683 16.2446C53.5866 15.9544 53.8467 15.6062 54.0349 15.2188C52.6676 12.6054 51.9131 9.33823 51.9593 6.20873L51.9667 5.72126L55.1946 5.44727L55.1858 6.04193C55.1295 9.8682 56.554 13.9569 58.7303 16.2159C58.8048 16.2946 58.8576 16.3914 58.8833 16.4968C58.9091 16.6021 58.907 16.7123 58.8772 16.8166C58.7469 17.2971 57.985 17.7952 57.5178 17.9255C57.0234 18.0641 56.554 18.0008 56.1599 17.7407L56.1067 17.701C55.9519 17.5688 55.7981 17.4297 55.6447 17.2851C55.394 17.6823 55.0882 18.0419 54.7363 18.3529C54.1638 18.8644 53.3598 19.271 52.3461 19.5626C51.6658 19.7639 50.9609 19.8699 50.2516 19.8777ZM45.0045 7.39205C45.0142 10.1501 45.4513 13.067 46.2479 15.6596C46.4553 16.3351 46.7524 16.9192 47.1318 17.3955C47.4762 17.8343 47.9187 18.1863 48.4237 18.4231C48.9093 18.6505 49.4693 18.7757 50.0871 18.7965C50.6877 18.8163 51.3499 18.7249 52.0503 18.5243C52.907 18.2785 53.5696 17.9495 54.0201 17.5471C54.452 17.1695 54.7914 16.6978 55.0121 16.1683L55.3355 15.3888L55.909 16.0117C56.1826 16.3102 56.4735 16.5925 56.7799 16.8572C56.8686 16.9099 57.0003 16.9533 57.2281 16.8896C57.3875 16.8345 57.5367 16.7533 57.6694 16.6493C55.5504 14.2494 54.1924 10.4148 54.1116 6.61811L53.0368 6.71052C53.0779 9.57526 53.8394 12.6179 55.1082 14.9425L55.2325 15.1698L55.1322 15.4092C54.879 16.0314 54.49 16.5893 53.9937 17.0421C53.4933 17.4972 52.8511 17.8276 52.0845 18.0216C50.9871 18.2989 50.0353 18.2291 49.254 17.8123C48.4297 17.3724 47.8272 16.6068 47.4621 15.5362C46.5893 12.9714 46.1032 10.0706 46.076 7.30195L45.0045 7.39205Z" fill="#000814"/>
<path d="M69.5311 6.11678C67.7217 8.65485 67.2514 12.0311 67.8483 14.3141C67.9551 14.7244 67.9407 15.4738 67.7763 15.497L66.0856 15.7317C61.3297 13.8613 58.683 9.36872 57.5977 5.49023L59.3535 5.58265C59.5309 5.5925 59.6695 5.64025 59.7693 5.72588C59.8639 5.80112 59.9316 5.90506 59.962 6.02206C60.7147 8.45986 62.1544 11.0945 64.4208 13.0762C64.6555 13.3022 64.8829 13.5147 65.1056 13.7139C65.3283 13.913 65.5524 14.1043 65.7834 14.2864C65.6927 14.0878 65.6145 13.8838 65.5492 13.6755C65.4812 13.4571 65.4358 13.2323 65.4138 13.0046C65.3366 10.9138 65.8804 8.41088 67.1599 6.35104C67.2252 6.24504 67.3204 6.16066 67.4334 6.10846C67.5627 6.0461 67.7061 6.019 67.8493 6.02991L69.5311 6.11678Z" fill="#000814"/>
<path d="M66.0211 16.2833L65.8899 16.2315C59.9576 13.8986 57.7527 8.04299 57.0804 5.63384L56.8789 4.91211L59.3823 5.04379C59.678 5.05904 59.9262 5.14961 60.1216 5.31317C60.2984 5.45778 60.4256 5.65408 60.4852 5.87457C61.3169 8.56234 62.8417 10.9752 64.7823 12.6695L64.8013 12.6866L64.8761 12.7587C64.8466 10.4572 65.523 7.97414 66.7096 6.06447C66.8269 5.8729 66.9976 5.71972 67.2007 5.62367C67.4125 5.52042 67.6476 5.47423 67.8827 5.48968L70.5446 5.62829L69.9754 6.42719C68.153 8.9842 67.8679 12.2366 68.3748 14.1763C68.4474 14.4535 68.5596 15.3407 68.2856 15.7519C68.2382 15.8262 68.1752 15.8894 68.1012 15.9372C68.0271 15.985 67.9436 16.0164 67.8564 16.0291L66.0211 16.2833ZM65.9537 12.9662C65.9728 13.1518 66.0102 13.335 66.0655 13.5133C66.1241 13.6999 66.1941 13.8828 66.2752 14.0608L66.7489 15.0972L67.3777 15.0098C67.3855 14.8224 67.3689 14.6348 67.3283 14.4517C66.7951 12.4108 67.0085 9.29932 68.5758 6.60693L67.8208 6.56719C67.771 6.56203 67.7206 6.56999 67.6748 6.59029C67.6558 6.59745 67.6388 6.6092 67.6254 6.62448C66.5003 8.43574 65.8779 10.8024 65.9537 12.9662ZM58.3367 6.06725C59.1471 8.54524 61.2181 13.0521 65.9269 15.0824L65.4523 14.7077C65.2176 14.5228 64.981 14.3223 64.7477 14.1125C64.5144 13.9028 64.2801 13.6842 64.0592 13.4717C61.9754 11.6456 60.3388 9.05674 59.4498 6.17952L59.4424 6.1518C59.4424 6.1518 59.4359 6.14487 59.4244 6.13517C59.3928 6.12387 59.3595 6.11839 59.3259 6.119L58.3367 6.06725Z" fill="#000814"/>
<path d="M77.2299 13.5025C76.6028 13.481 75.978 13.4155 75.36 13.3066C75.1721 13.2724 74.9873 13.2335 74.8055 13.1897C74.027 13.0021 73.3066 12.7221 72.6755 12.3299C71.8969 11.8479 71.2921 11.1964 70.9257 10.3892C70.6295 9.73819 70.574 9.09547 70.7205 8.50682C70.867 7.91816 71.2061 7.41683 71.6908 7.019C72.1755 6.62117 72.8058 6.33608 73.539 6.15542C74.2723 5.97476 75.0948 5.92116 75.9815 5.9706C76.6604 6.00339 77.333 6.11724 77.9849 6.30975C78.5497 6.47597 79.0871 6.72412 79.5799 7.04626C80.0475 7.35491 80.4486 7.72964 80.8344 8.17136C81.2202 8.61309 81.5603 9.11164 81.9096 9.64393C82.0455 9.85093 82.1129 9.98539 82.0894 10.0547C82.0658 10.124 81.9507 10.1624 81.7414 10.1702L73.2262 10.4973C73.5469 11.0397 73.99 11.4997 74.52 11.8405C75.0564 12.1825 75.6458 12.4333 76.2642 12.5826C76.903 12.7393 77.5567 12.8275 78.2141 12.846C78.8681 12.8665 79.5227 12.8396 80.1728 12.7656C80.4481 12.7348 80.6946 12.7015 80.912 12.6658C81.1282 12.6319 81.3426 12.5872 81.5543 12.5318C81.8814 12.4435 77.637 13.5183 77.2299 13.5025ZM79.737 9.37594C79.5723 9.0522 79.3729 8.74731 79.1424 8.46662C78.9115 8.18602 78.6419 7.93973 78.3416 7.73518C78.0187 7.51771 77.6648 7.35025 77.2918 7.23848C76.8584 7.10946 76.4096 7.03936 75.9574 7.03009C74.9224 6.99728 74.0963 7.18026 73.5376 7.6169C72.979 8.05354 72.706 8.69626 72.8547 9.50439L79.737 9.37594Z" fill="#000814"/>
<path d="M77.2321 14.0415H77.21C76.5576 14.0186 75.9076 13.9502 75.2647 13.8368C75.0656 13.8008 74.8683 13.7592 74.6793 13.7139C73.8148 13.5055 73.045 13.1941 72.3912 12.7898C71.498 12.2353 70.8396 11.5053 70.4353 10.6181C70.0999 9.87886 70.0195 9.1063 70.1978 8.38226C70.3702 7.68918 70.7583 7.09313 71.353 6.60797C71.8885 6.16948 72.5825 5.84327 73.416 5.63766C74.1752 5.45283 75.0503 5.38399 76.0165 5.43759C76.7383 5.47328 77.4533 5.59457 78.1465 5.79891C78.7611 5.98002 79.3458 6.25027 79.882 6.60104C80.3602 6.91662 80.7932 7.30429 81.2455 7.82133C81.6679 8.30371 82.031 8.84247 82.3651 9.35304C82.5499 9.63628 82.7107 9.91721 82.6054 10.2309C82.5051 10.5322 82.2233 10.6953 81.7681 10.7129L74.3138 10.9989C74.4705 11.145 74.6397 11.2772 74.8193 11.3939C75.306 11.7034 75.8406 11.9301 76.4014 12.0648C77.0031 12.2121 77.6188 12.295 78.238 12.312C78.8659 12.3316 79.4944 12.3056 80.1186 12.2344C80.3829 12.2048 80.6222 12.173 80.8297 12.1388C80.9475 12.1194 81.0566 12.0995 81.1554 12.0787L81.3495 12.0325C81.3721 12.0269 81.3957 12.0223 81.4156 12.0186C81.9317 11.9262 82.068 12.2811 82.098 12.3971C82.1162 12.4665 82.1203 12.5388 82.1101 12.6098C82.0999 12.6809 82.0756 12.7491 82.0386 12.8106C82.0017 12.8721 81.9527 12.9256 81.8948 12.9679C81.8368 13.0101 81.771 13.0404 81.7011 13.0569C81.6087 13.0821 81.5066 13.1066 81.3948 13.1303L81.331 13.146C78.3166 13.8816 77.4997 14.0415 77.2321 14.0415ZM75.3839 6.49338C74.8077 6.48647 74.2326 6.54852 73.6711 6.6782C72.9946 6.84454 72.4434 7.09914 72.0331 7.43505C71.6228 7.77096 71.358 8.17434 71.2425 8.63639C71.1201 9.12848 71.1783 9.64321 71.4158 10.1658C71.7305 10.8589 72.2475 11.4304 72.9586 11.8698C73.4983 12.2053 74.1387 12.4664 74.8636 12.6475C74.6442 12.5424 74.432 12.4229 74.2283 12.2899C73.6286 11.9039 73.1276 11.3828 72.7655 10.7683L72.3099 9.99529L72.3967 9.99206L72.3256 9.60162C72.1486 8.63131 72.4614 7.77651 73.2058 7.19386C73.7529 6.76599 74.5079 6.53173 75.4551 6.49384L75.3839 6.49338ZM77.4345 6.71933L77.4516 6.72441C77.8756 6.85198 78.278 7.0428 78.6451 7.29043C78.9871 7.52294 79.2942 7.80299 79.5572 8.12212C79.8126 8.43273 80.0335 8.77016 80.2161 9.12848L80.5021 9.68063L81.2714 9.65106C81.0165 9.25887 80.7365 8.88352 80.4333 8.52735C80.0461 8.0847 79.682 7.75756 79.2869 7.49696C78.8376 7.20334 78.3475 6.97744 77.8323 6.82652C77.703 6.7874 77.5704 6.75167 77.4345 6.71933ZM75.7249 7.56535C74.8974 7.56535 74.2736 7.72522 73.8688 8.04173C73.5611 8.28292 73.3906 8.58926 73.3606 8.95706L78.7666 8.85633L78.7297 8.81012C78.5306 8.56873 78.2982 8.35698 78.0393 8.18127C77.7603 7.99397 77.4547 7.84974 77.1328 7.7534C76.7454 7.63929 76.3445 7.57714 75.9407 7.56858C75.8677 7.56627 75.7965 7.56535 75.7263 7.56535H75.7249Z" fill="#000814"/>
<path d="M0.146484 39.5818C0.146484 39.5818 20.6973 25.6864 43.0483 18.7926C71.4646 10.0293 106.002 11.3956 106.002 11.3956C106.002 11.3956 76.4419 10.7533 42.1459 23.7698C13.997 34.4562 1.92401 53.1468 1.92401 53.1468L0.146484 39.5818Z" fill="#FFC300"/>
<path d="M1.83574 53.5291L0 39.5187L0.0688461 39.4725C0.27446 39.3339 20.8918 25.487 43.0062 18.6671C57.6995 14.1362 74.0442 12.3647 85.1701 11.6762C97.2241 10.9309 105.999 11.399 105.999 11.399C105.926 11.399 98.4791 11.3902 86.943 12.8392C76.2977 14.1764 59.8924 17.1825 42.1907 23.8989C27.6771 29.4071 17.5299 37.0864 11.5759 42.5581C5.12326 48.4876 2.06492 53.1747 2.03304 53.2214L1.83574 53.5291ZM0.288784 39.6485L2.00901 52.7792C2.78665 51.6564 5.83667 47.4656 11.3855 42.3673C17.3585 36.8771 27.5348 29.1724 42.0932 23.6457C59.8222 16.9168 76.2524 13.9084 86.9125 12.5694C91.6998 11.9687 95.7839 11.6406 98.9319 11.4632C95.3491 11.4905 90.6061 11.6083 85.1802 11.9442C74.0696 12.6313 57.7471 14.4005 43.0824 18.9212C21.6519 25.5337 1.62227 38.7586 0.288784 39.6485Z" fill="#FFC300"/>
<path d="M82.3526 0.149309H81.9219V1.34382H81.7462V0.149309H81.3164V0.00390625H82.3526V0.149309Z" fill="#000814"/>
<path d="M82.7796 0.00390625L83.2177 1.09719L83.6557 0.00390625H83.8849V1.34382H83.7082V0.82203L83.7248 0.258822L83.2849 1.34382H83.1496L82.7106 0.261583L82.7281 0.82203V1.34382H82.5514V0.00390625H82.7796Z" fill="#000814"/>
</svg>
