<svg width="43" height="43" viewBox="0 0 43 43" fill="none" xmlns="http://www.w3.org/2000/svg">
<circle cx="21.0326" cy="21.0318" r="20.3315" transform="rotate(-90 21.0326 21.0318)" stroke="#000814" stroke-width="1.40218"/>
<path fill-rule="evenodd" clip-rule="evenodd" d="M11.6827 21.5021C11.6827 21.688 11.7566 21.8663 11.8881 21.9978C12.0196 22.1293 12.1979 22.2032 12.3838 22.2032L28.9197 22.2032L24.507 26.6144C24.3754 26.7461 24.3014 26.9246 24.3014 27.1108C24.3014 27.297 24.3754 27.4755 24.507 27.6072C24.6387 27.7388 24.8172 27.8128 25.0034 27.8128C25.1896 27.8128 25.3681 27.7388 25.4998 27.6072L31.1085 21.9985C31.1738 21.9333 31.2256 21.856 31.2609 21.7708C31.2963 21.6856 31.3145 21.5943 31.3145 21.5021C31.3145 21.4099 31.2963 21.3186 31.2609 21.2334C31.2256 21.1482 31.1738 21.0708 31.1085 21.0057L25.4998 15.397C25.4346 15.3318 25.3572 15.2801 25.272 15.2448C25.1869 15.2096 25.0956 15.1914 25.0034 15.1914C24.8172 15.1914 24.6387 15.2654 24.507 15.397C24.3754 15.5287 24.3014 15.7072 24.3014 15.8934C24.3014 16.0796 24.3754 16.2581 24.507 16.3897L28.9197 20.801L12.3838 20.801C12.1979 20.801 12.0196 20.8749 11.8881 21.0063C11.7566 21.1378 11.6827 21.3161 11.6827 21.5021Z" fill="#000814"/>
</svg>
