<svg width="51" height="51" viewBox="0 0 51 51" fill="none" xmlns="http://www.w3.org/2000/svg">
<rect x="0.369141" y="0.914062" width="49.6842" height="49.6842" rx="24.8421" fill="#343538"/>
<path d="M26.9359 23.4266V25.928H29.1786C29.3511 25.928 29.4374 26.1005 29.4374 26.2731L29.0923 27.9119C29.0923 27.9982 28.9198 28.0845 28.8336 28.0845H26.9359V34.3812H24.3482V28.1707H22.8818C22.7093 28.1707 22.623 28.0845 22.623 27.9119V26.2731C22.623 26.1005 22.7093 26.0143 22.8818 26.0143H24.3482V23.1678C24.3482 21.7014 25.4695 20.5801 26.9359 20.5801H29.2649C29.4374 20.5801 29.5236 20.6663 29.5236 20.8389V22.909C29.5236 23.0815 29.4374 23.1678 29.2649 23.1678H27.1947C27.0222 23.1678 26.9359 23.2541 26.9359 23.4266Z" stroke="white" stroke-width="1.03509" stroke-miterlimit="10" stroke-linecap="round"/>
<path d="M27.7974 34.3804H22.622C18.3091 34.3804 16.584 32.6552 16.584 28.3424V23.1669C16.584 18.8541 18.3091 17.1289 22.622 17.1289H27.7974C32.1103 17.1289 33.8354 18.8541 33.8354 23.1669V28.3424C33.8354 32.6552 32.1103 34.3804 27.7974 34.3804Z" stroke="white" stroke-width="1.03509" stroke-linecap="round" stroke-linejoin="round"/>
</svg>
