<svg width="224" height="227" viewBox="0 0 224 227" fill="none" xmlns="http://www.w3.org/2000/svg">
<ellipse cx="112" cy="113.009" rx="112" ry="113.009" fill="#001D3D"/>
<mask id="mask0_2630_3454" style="mask-type:alpha" maskUnits="userSpaceOnUse" x="0" y="0" width="224" height="227">
<ellipse cx="112" cy="113.009" rx="112" ry="113.009" fill="#000814"/>
</mask>
<g mask="url(#mask0_2630_3454)">
<path d="M146.594 51.2656C141.86 79.276 142.473 113.344 146.799 141.725L138.195 143.788C135.556 122.093 134.673 97.7503 136.164 74.8826C136.224 73.9713 136.314 72.9964 136.436 71.9578C136.557 70.9193 136.695 69.8645 136.848 68.7935C127.727 88.1761 120.451 109.877 112.955 132.239C112.26 134.482 111.143 135.759 109.611 136.056L108.236 136.323C106.702 136.62 105.546 135.772 104.789 133.746C96.5372 113.547 90.022 91.68 83.78 69.3679C83.7964 72.0159 83.7391 74.4702 83.6082 76.7308C82.0687 103.18 82.888 150.545 81.846 177.925L73.2421 179.988C75.3954 141.585 75.2502 84.1647 77.6345 48.0233L84.2458 48.3314C85.0477 48.3692 85.6539 48.5229 86.0675 48.787C86.481 49.0511 86.8434 49.7564 87.1594 50.8972C93.1371 72.7083 99.1752 93.9537 106.699 114.189C107.062 115.292 107.421 116.441 107.777 117.636C108.132 118.831 108.469 120.048 108.788 121.287C109.103 119.95 109.436 118.625 109.786 117.314C110.136 116.003 110.517 114.75 110.93 113.555C118.653 91.6815 126.538 70.6778 136.585 52.8313C137.089 51.8997 137.583 51.3523 138.061 51.1703C138.54 50.9884 139.177 50.9165 139.981 50.9542L146.594 51.2656Z" fill="white"/>
<path d="M71.0604 182.613L71.2146 179.869C72.2398 161.625 72.7562 138.693 73.2478 116.519C73.7927 92.1077 74.3555 66.8668 75.607 47.8851L75.7399 45.8799L84.3425 46.2899C85.5128 46.3542 86.4338 46.5978 87.1586 47.0616C88.0441 47.6336 88.6475 48.6478 89.1184 50.3548C94.7614 70.9564 100.913 92.7966 108.601 113.475L108.628 113.549L108.708 113.794C108.807 113.487 108.91 113.184 109.013 112.881C115.992 93.1233 124.314 70.4807 134.818 51.8202C135.549 50.4712 136.379 49.623 137.339 49.2553C138.089 48.9695 138.981 48.8555 140.073 48.9078L148.982 49.3273L148.597 51.6111C144.156 77.887 144.234 111.458 148.807 141.413L149.092 143.283L136.456 146.307L136.179 144.038C133.67 123.397 132.843 101.115 133.808 80.6368C126.931 96.9495 121.044 114.511 114.881 132.905C113.729 136.612 111.587 137.768 109.997 138.076L108.621 138.342C107.418 138.575 104.469 138.665 102.901 134.508C96.1126 117.874 90.4413 99.9214 85.3571 82.3662C84.7441 96.5933 84.6334 115.253 84.5257 133.369C84.4265 150.073 84.3327 165.85 83.8707 178.005L83.811 179.562L71.0604 182.613ZM79.5321 50.17C78.3761 68.8281 77.8327 93.1062 77.3085 116.623C76.8366 137.725 76.3568 159.523 75.4138 177.358L79.8649 176.293C80.2762 164.419 80.3665 149.309 80.4603 133.346C80.5821 112.726 80.7043 91.4049 81.5839 76.6082C81.7128 74.4126 81.7686 71.9802 81.7509 69.38L81.6506 54.1987L85.7385 68.8203C91.6842 90.0887 98.3336 112.581 106.672 132.976L106.695 133.034C107.222 134.444 107.636 134.357 107.858 134.321L109.234 134.055C109.968 133.912 110.57 133.1 111.026 131.638C118.648 108.891 125.834 87.4457 135.019 67.9226L140.769 55.7016L138.865 69.0917C138.719 70.1214 138.582 71.1697 138.459 72.2078C138.342 73.1923 138.255 74.1404 138.2 75.0253C136.828 96.0887 137.451 119.518 139.952 141.273L144.523 140.179C140.283 111.142 140.182 78.9789 144.227 53.2055L139.893 53.0019C139.554 52.9736 139.214 52.9927 138.881 53.0585C138.68 53.2868 138.51 53.5407 138.374 53.8137C128.014 72.2184 119.768 94.6542 112.849 114.242C112.458 115.371 112.09 116.588 111.753 117.847C111.408 119.139 111.077 120.457 110.77 121.762L108.878 129.783L106.829 121.799C106.519 120.593 106.187 119.388 105.839 118.224C105.491 117.06 105.137 115.926 104.792 114.871C97.0503 94.0456 90.8745 72.1193 85.2105 51.4439C85.1269 51.1099 85.0112 50.785 84.8651 50.4738C84.6328 50.4167 84.395 50.385 84.156 50.3794L79.5321 50.17Z" fill="white"/>
<path d="M24.9062 208.049C24.9062 208.049 74.3103 162.722 122.963 144.28C184.819 120.838 252.572 137.462 252.572 137.462C252.572 137.462 194.257 125.213 118.095 162.665C55.5832 193.416 20.0544 259.567 20.0544 259.567L24.9062 208.049Z" fill="#FFC300"/>
<path d="M19.6518 260.968L24.6632 207.758L24.8285 207.607C25.3225 207.155 74.8287 162.033 122.966 143.789C154.95 131.67 188.508 130.459 211.031 131.577C235.433 132.791 252.574 137.469 252.574 137.469C252.428 137.445 237.642 134.933 213.834 136.534C191.864 138.011 157.423 143.836 118.114 163.16C85.8832 179.008 60.9837 204.461 45.7768 223.021C29.2967 243.135 20.326 259.713 20.2338 259.878L19.6518 260.968ZM25.1565 208.341L20.4593 258.21C22.6977 254.253 31.3452 239.535 45.5166 222.242C60.7726 203.618 85.7456 178.08 118.076 162.177C157.447 142.815 191.94 136.99 213.94 135.511C223.82 134.849 232.134 134.977 238.496 135.358C231.364 134.268 221.87 133.132 210.886 132.587C188.394 131.468 154.881 132.678 122.961 144.769C76.3096 162.461 28.355 205.444 25.1565 208.341Z" fill="#FFC300"/>
</g>
</svg>
