<svg width="50" height="51" viewBox="0 0 50 51" fill="none" xmlns="http://www.w3.org/2000/svg">
<rect x="0.298828" y="0.914062" width="49.6842" height="49.6842" rx="24.8421" fill="#343538"/>
<path d="M20.7403 33.1728C22.0341 33.9491 23.5868 34.3804 25.1394 34.3804C29.8836 34.3804 33.7651 30.4988 33.7651 25.7546C33.7651 21.0105 29.8836 17.1289 25.1394 17.1289C20.3953 17.1289 16.5137 21.0105 16.5137 25.7546C16.5137 27.3073 16.945 28.7736 17.635 30.0675L16.9541 32.6864C16.7594 33.4353 17.4526 34.1121 18.1967 33.8995L20.7403 33.1728Z" stroke="white" stroke-width="1.03509" stroke-miterlimit="10" stroke-linecap="round" stroke-linejoin="round"/>
<path d="M29.021 28.2117C29.021 28.3514 28.9899 28.495 28.9238 28.6348C28.8577 28.7745 28.7722 28.9065 28.6594 29.0307C28.469 29.2403 28.259 29.3917 28.0219 29.4887C27.7887 29.5857 27.536 29.6362 27.2639 29.6362C26.8673 29.6362 26.4436 29.543 25.9966 29.3528C25.5495 29.1627 25.1025 28.9065 24.6593 28.5843C24.2122 28.2582 23.7885 27.8973 23.3842 27.4975C22.9838 27.0938 22.6223 26.6707 22.2996 26.2282C21.9809 25.7857 21.7243 25.3432 21.5377 24.9046C21.3511 24.4621 21.2578 24.039 21.2578 23.6353C21.2578 23.3713 21.3045 23.119 21.3978 22.8861C21.4911 22.6494 21.6388 22.432 21.8448 22.2379C22.0936 21.9934 22.3657 21.873 22.6534 21.873C22.7622 21.873 22.8711 21.8963 22.9683 21.9429C23.0693 21.9895 23.1588 22.0594 23.2287 22.1603L24.1306 23.4296C24.2006 23.5266 24.2511 23.6159 24.2861 23.7013C24.3211 23.7828 24.3405 23.8643 24.3405 23.938C24.3405 24.0312 24.3133 24.1244 24.2589 24.2136C24.2084 24.3029 24.1345 24.3961 24.0412 24.4892L23.7458 24.7959C23.703 24.8386 23.6836 24.889 23.6836 24.9511C23.6836 24.9822 23.6874 25.0094 23.6952 25.0404C23.7069 25.0715 23.7185 25.0948 23.7263 25.118C23.7963 25.2461 23.9168 25.413 24.0878 25.6149C24.2628 25.8167 24.4494 26.0225 24.6515 26.2282C24.8614 26.4339 25.0636 26.6241 25.2696 26.7988C25.4718 26.9696 25.6389 27.086 25.7711 27.1559C25.7905 27.1636 25.8139 27.1753 25.8411 27.1869C25.8722 27.1986 25.9033 27.2025 25.9383 27.2025C26.0043 27.2025 26.0549 27.1792 26.0976 27.1365L26.3931 26.8453C26.4903 26.7483 26.5836 26.6746 26.673 26.628C26.7624 26.5736 26.8518 26.5465 26.949 26.5465C27.0228 26.5465 27.1006 26.562 27.1861 26.5969C27.2716 26.6319 27.361 26.6823 27.4582 26.7483L28.745 27.6605C28.846 27.7303 28.916 27.8119 28.9588 27.9089C28.9976 28.0059 29.021 28.103 29.021 28.2117Z" stroke="white" stroke-width="1.03509" stroke-miterlimit="10"/>
</svg>
