<svg width="210" height="211" viewBox="0 0 210 211" fill="none" xmlns="http://www.w3.org/2000/svg">
<path d="M100.947 34.266C100.947 34.266 98.941 50.8616 101.686 66.3819C105.176 86.1136 116.623 106.398 116.623 106.398C116.623 106.398 107.142 88.8745 104.392 64.3094C102.137 44.1463 109.626 31.1575 109.626 31.1575L100.947 34.266Z" fill="#FFC300"/>
<path d="M109.824 30.9885L100.86 34.1992L100.854 34.2546C100.834 34.4206 98.8771 51.0411 101.593 66.3969C103.399 76.5995 107.366 86.943 110.377 93.8245C113.639 101.28 116.62 106.397 116.62 106.397C116.597 106.353 114.301 101.891 111.62 94.5295C109.145 87.7364 105.9 76.9767 104.479 64.2981C103.315 53.9025 104.796 45.4565 106.244 40.2034C107.813 34.5106 109.682 31.235 109.7 31.2015L109.824 30.9885ZM101.027 34.3323L109.428 31.3231C108.994 32.1348 107.42 35.2528 106.071 40.148C104.618 45.4181 103.131 53.8894 104.297 64.3175C105.719 77.0163 108.971 87.7917 111.448 94.5942C112.561 97.649 113.621 100.198 114.484 102.14C113.398 99.9839 112.009 97.1043 110.541 93.7482C107.534 86.8762 103.572 76.5467 101.769 66.3644C99.139 51.4824 100.904 35.4056 101.027 34.3323Z" fill="#FFC300"/>
<path d="M34.7406 108.746C34.7406 108.746 51.3362 110.752 66.8565 108.008C86.5882 104.517 106.872 93.0705 106.872 93.0705C106.872 93.0705 89.3492 102.551 64.784 105.301C44.6209 107.557 31.6321 100.067 31.6321 100.067L34.7406 108.746Z" fill="#FFC300"/>
<path d="M31.4631 99.8653L34.6738 108.829L34.7293 108.836C34.8952 108.856 51.5157 110.812 66.8715 108.096C77.0741 106.291 87.4176 102.323 94.2991 99.3127C101.755 96.0503 106.871 93.0695 106.871 93.0695C106.827 93.0921 102.366 95.3888 95.0041 98.0699C88.211 100.544 77.4513 103.79 64.7727 105.211C54.3771 106.374 45.9311 104.893 40.678 103.445C34.9852 101.876 31.7096 100.007 31.6761 99.9891L31.4631 99.8653ZM34.8069 108.662L31.7978 100.262C32.6094 100.695 35.7274 102.269 40.6226 103.618C45.8927 105.071 54.364 106.559 64.7922 105.392C77.491 103.971 88.2663 100.719 95.0689 98.2411C98.1236 97.1281 100.673 96.068 102.615 95.2057C100.458 96.2918 97.5789 97.6807 94.2228 99.1489C87.3508 102.156 77.0213 106.118 66.839 107.92C51.957 110.55 35.8802 108.786 34.8069 108.662Z" fill="#FFC300"/>
<path d="M175.222 101.75C175.222 101.75 158.627 99.7437 143.106 102.489C123.375 105.979 103.091 117.426 103.091 117.426C103.091 117.426 120.614 107.945 145.179 105.195C165.342 102.939 178.331 110.429 178.331 110.429L175.222 101.75Z" fill="#FFC300"/>
<path d="M178.5 110.631L175.289 101.667L175.234 101.66C175.068 101.641 158.447 99.6838 143.091 102.4C132.889 104.205 122.545 108.173 115.664 111.183C108.208 114.446 103.092 117.427 103.092 117.427C103.136 117.404 107.597 115.107 114.959 112.426C121.752 109.952 132.512 106.706 145.19 105.286C155.586 104.122 164.032 105.603 169.285 107.051C174.978 108.62 178.253 110.489 178.287 110.507L178.5 110.631ZM175.156 101.834L178.165 110.235C177.353 109.801 174.235 108.227 169.34 106.878C164.07 105.425 155.599 103.937 145.171 105.104C132.472 106.525 121.697 109.778 114.894 112.255C111.839 113.368 109.29 114.428 107.348 115.29C109.504 114.204 112.384 112.815 115.74 111.347C122.612 108.34 132.942 104.378 143.124 102.576C158.006 99.9456 174.083 101.71 175.156 101.834Z" fill="#FFC300"/>
<path d="M109.373 175.609C109.373 175.609 111.379 159.013 108.634 143.493C105.144 123.761 93.6975 103.477 93.6975 103.477C93.6975 103.477 103.178 121 105.928 145.566C108.184 165.729 100.694 178.717 100.694 178.717L109.373 175.609Z" fill="#FFC300"/>
<path d="M100.496 178.886L109.46 175.676L109.467 175.62C109.486 175.454 111.443 158.834 108.727 143.478C106.922 133.276 102.954 122.932 99.9435 116.05C96.6812 108.595 93.7003 103.478 93.7003 103.478C93.7229 103.522 96.0197 107.984 98.7008 115.346C101.175 122.139 104.421 132.898 105.841 145.577C107.005 155.972 105.524 164.419 104.076 169.672C102.507 175.364 100.638 178.64 100.62 178.674L100.496 178.886ZM109.293 175.543L100.892 178.552C101.326 177.74 102.9 174.622 104.249 169.727C105.702 164.457 107.19 155.986 106.023 145.557C104.602 132.859 101.349 122.083 98.8719 115.281C97.7589 112.226 96.6989 109.677 95.8366 107.735C96.9227 109.891 98.3115 112.771 99.7797 116.127C102.787 122.999 106.749 133.328 108.551 143.511C111.181 158.393 109.417 174.469 109.293 175.543Z" fill="#FFC300"/>
<path d="M151.66 51.845C151.66 51.845 143.033 66.1629 131.321 76.7101C116.43 90.1187 94.9273 99.0683 94.9273 99.0683C94.9273 99.0683 113.182 91.0862 130.462 73.4114C144.645 58.9028 146.731 44.0552 146.731 44.0552L151.66 51.845Z" fill="#FFC300"/>
<path d="M146.676 43.7965L151.768 51.8423L151.739 51.89C151.652 52.033 142.97 66.3401 131.382 76.7751C123.682 83.7081 114.191 89.4219 107.584 92.9949C100.425 96.8657 94.9274 99.0657 94.9274 99.0657C94.9723 99.0449 99.5277 96.9404 106.17 92.7862C112.3 88.9526 121.478 82.4669 130.398 73.3453C137.711 65.8657 141.739 58.2958 143.829 53.2636C146.094 47.8103 146.636 44.0782 146.642 44.0406L146.676 43.7965ZM151.554 51.8447L146.782 44.3041C146.625 45.2109 145.948 48.6373 144 53.3264C141.903 58.3752 137.864 65.9689 130.529 73.4725C121.596 82.6094 112.403 89.1037 106.265 92.9425C103.509 94.6661 101.105 96.0237 99.2302 97.0241C101.413 95.9924 104.279 94.5766 107.502 92.8339C114.1 89.2661 123.578 83.56 131.263 76.6413C142.492 66.5269 150.991 52.7666 151.554 51.8447Z" fill="#FFC300"/>
<path d="M158.036 151.287C158.036 151.287 143.718 142.66 133.171 130.948C119.762 116.057 110.813 94.5543 110.813 94.5543C110.813 94.5543 118.795 112.809 136.469 130.089C150.978 144.272 165.826 146.357 165.826 146.357L158.036 151.287Z" fill="#FFC300"/>
<path d="M166.086 146.303L158.041 151.394L157.993 151.365C157.85 151.279 143.543 142.597 133.108 131.009C126.175 123.309 120.461 113.818 116.888 107.211C113.017 100.052 110.817 94.5543 110.817 94.5543C110.838 94.5992 112.942 99.1547 117.097 105.797C120.93 111.927 127.416 121.105 136.538 130.025C144.017 137.338 151.587 141.366 156.619 143.456C162.073 145.721 165.805 146.263 165.842 146.269L166.086 146.303ZM158.038 151.181L165.579 146.409C164.672 146.252 161.246 145.575 156.556 143.626C151.508 141.53 143.914 137.491 136.41 130.156C127.273 121.223 120.779 112.03 116.94 105.892C115.217 103.136 113.859 100.732 112.859 98.8572C113.89 101.04 115.306 103.906 117.049 107.129C120.617 113.727 126.323 123.205 133.242 130.89C143.356 142.119 157.116 150.618 158.038 151.181Z" fill="#FFC300"/>
<path d="M51.5872 59.3473C51.5872 59.3473 65.9051 67.9751 76.4523 79.6871C89.8609 94.5777 98.8105 116.08 98.8105 116.08C98.8105 116.08 90.8284 97.8259 73.1536 80.5455C58.645 66.3633 43.7973 64.2773 43.7973 64.2773L51.5872 59.3473Z" fill="#FFC300"/>
<path d="M43.5368 64.332L51.5825 59.2403L51.6303 59.2693C51.7733 59.3557 66.0803 68.0379 76.5153 79.6262C83.4483 87.3259 89.1621 96.817 92.7351 103.424C96.6059 110.583 98.806 116.08 98.806 116.08C98.7851 116.036 96.6807 111.48 92.5264 104.838C88.6929 98.708 82.2071 89.5297 73.0855 80.6099C65.606 73.297 58.0361 69.2688 53.0039 67.1788C47.5505 64.9136 43.8184 64.3717 43.7808 64.3655L43.5368 64.332ZM51.5849 59.4536L44.0444 64.2255C44.9511 64.3828 48.3775 65.0603 53.0666 67.0083C58.1155 69.1047 65.7092 73.1435 73.2127 80.4785C82.3496 89.4115 88.8439 98.6044 92.6827 104.742C94.4063 107.499 95.764 109.903 96.7643 111.778C95.7326 109.595 94.3168 106.728 92.5742 103.506C89.0063 96.908 83.3002 87.4299 76.3815 79.7448C66.2671 68.5158 52.5068 60.0168 51.5849 59.4536Z" fill="#FFC300"/>
<path d="M58.0524 158.081C58.0524 158.081 66.6802 143.763 78.3922 133.216C93.2828 119.807 114.786 110.857 114.786 110.857C114.786 110.857 96.531 118.84 79.2506 136.514C65.0683 151.023 62.9824 165.871 62.9824 165.871L58.0524 158.081Z" fill="#FFC300"/>
<path d="M63.0371 166.129L57.9454 158.084L57.9744 158.036C58.0608 157.893 66.743 143.586 78.3313 133.151C86.031 126.218 95.522 120.504 102.129 116.931C109.288 113.06 114.786 110.86 114.786 110.86C114.741 110.881 110.185 112.985 103.543 117.14C97.4131 120.973 88.2348 127.459 79.315 136.58C72.0021 144.06 67.9739 151.63 65.8838 156.662C63.6187 162.116 63.0768 165.848 63.0705 165.885L63.0371 166.129ZM58.1587 158.081L62.9306 165.622C63.0879 164.715 63.7653 161.289 65.7134 156.599C67.8098 151.551 71.8485 143.957 79.1836 136.453C88.1165 127.316 97.3094 120.822 103.448 116.983C106.204 115.26 108.608 113.902 110.483 112.902C108.3 113.933 105.434 115.349 102.211 117.092C95.6131 120.66 86.1349 126.366 78.4499 133.285C67.2209 143.399 58.7219 157.159 58.1587 158.081Z" fill="#FFC300"/>
</svg>
