<svg width="51" height="51" viewBox="0 0 51 51" fill="none" xmlns="http://www.w3.org/2000/svg">
<rect x="0.333984" y="0.914062" width="49.6842" height="49.6842" rx="24.8421" fill="#343538"/>
<path d="M29.4874 32.6566H20.8617C18.274 32.6566 16.5488 30.9315 16.5488 28.3438V23.1683C16.5488 20.5806 18.274 18.8555 20.8617 18.8555H29.4874C32.0751 18.8555 33.8003 20.5806 33.8003 23.1683V28.3438C33.8003 30.9315 32.0751 32.6566 29.4874 32.6566Z" stroke="white" stroke-width="1.03509" stroke-miterlimit="10" stroke-linecap="round" stroke-linejoin="round"/>
<path d="M24.6581 23.5986L26.8145 24.8924C27.5908 25.41 27.5908 26.1863 26.8145 26.7038L24.6581 27.9977C23.7955 28.5152 23.1055 28.0839 23.1055 27.1351V24.5474C23.1055 23.426 23.7955 23.081 24.6581 23.5986Z" stroke="white" stroke-width="1.03509" stroke-miterlimit="10" stroke-linecap="round" stroke-linejoin="round"/>
</svg>
